<svg width="61" height="60" viewBox="0 0 61 60" fill="none" xmlns="http://www.w3.org/2000/svg">
<g clip-path="url(#clip0_681_102)">
<path d="M41.8292 42.084C42.3135 42.084 42.706 41.6914 42.706 41.2072V34.2957C42.706 33.8115 42.3134 33.4189 41.8292 33.4189H40.3519C39.8676 33.4189 39.4751 33.8115 39.4751 34.2957C39.4751 34.78 39.8677 35.1725 40.3519 35.1725H40.9524V41.2072C40.9524 41.6914 41.3449 42.084 41.8292 42.084Z" fill="#D74C20"/>
<path d="M19.7966 40.506C19.4107 40.7956 19.3311 41.3431 19.6194 41.7306C19.7914 41.9619 20.0559 42.0842 20.3236 42.0842C20.5055 42.0842 20.689 42.0278 20.8461 41.9109C20.904 41.8678 20.9593 41.8213 21.0143 41.7748C22.6464 40.3923 24.2488 37.6775 23.5435 35.4668C23.4073 35.0398 23.1588 34.6602 22.844 34.3432C22.3074 33.8029 21.5665 33.493 20.8047 33.493C19.2191 33.493 17.9292 34.7829 17.9292 36.3686C17.9292 37.9543 19.2191 39.2441 20.8047 39.2441C20.8421 39.2441 20.8792 39.2427 20.9162 39.2413C20.3737 40.0547 19.8165 40.4905 19.7966 40.506ZM20.8047 37.4903C20.1861 37.4903 19.6829 36.9871 19.6829 36.3685C19.6829 35.7498 20.1862 35.2466 20.8047 35.2466C21.4233 35.2466 21.9265 35.7498 21.9265 36.3685C21.9265 36.9871 21.4234 37.4903 20.8047 37.4903Z" fill="#D74C20"/>
<path d="M25.0508 36.0121V39.2084C25.0508 40.794 26.3407 42.084 27.9262 42.084C29.5118 42.084 30.8017 40.7941 30.8017 39.2084V36.0121C30.8017 34.4266 29.5118 33.1366 27.9262 33.1366C26.3407 33.1366 25.0508 34.4266 25.0508 36.0121ZM29.0479 36.0121V39.2084C29.0479 39.8271 28.5447 40.3303 27.9262 40.3303C27.3077 40.3303 26.8045 39.8271 26.8045 39.2084V36.0121C26.8045 35.3935 27.3077 34.8903 27.9262 34.8903C28.5447 34.8903 29.0479 35.3936 29.0479 36.0121Z" fill="#D74C20"/>
<path d="M32.2483 36.0121V39.2084C32.2483 40.794 33.5382 42.084 35.1237 42.084C36.7094 42.084 37.9993 40.7941 37.9993 39.2084V36.0121C37.9993 34.4266 36.7094 33.1366 35.1237 33.1366C33.5382 33.1367 32.2483 34.4266 32.2483 36.0121ZM36.2456 36.0121V39.2084C36.2456 39.8271 35.7422 40.3303 35.1237 40.3303C34.5051 40.3303 34.002 39.8271 34.002 39.2084V36.0121C34.002 35.3935 34.5052 34.8903 35.1237 34.8903C35.7424 34.8904 36.2456 35.3936 36.2456 36.0121Z" fill="#D74C20"/>
<path d="M57.1907 35.9436C59.1487 34.596 60.3176 32.374 60.3176 30C60.3176 27.626 59.1487 25.404 57.1908 24.0564C56.4292 23.5321 56.1649 22.5456 56.5624 21.7107C57.5841 19.5647 57.4854 17.0559 56.2984 15C55.1113 12.9442 52.9881 11.6044 50.6187 11.4161C49.697 11.3428 48.9748 10.6207 48.9017 9.69914C48.8913 9.56742 48.8767 9.43242 48.8586 9.29777C48.7935 8.81777 48.3507 8.48109 47.8718 8.54648C47.392 8.61141 47.0556 9.0532 47.1206 9.53309C47.1345 9.63574 47.1455 9.73816 47.1535 9.83789C47.2953 11.6235 48.6943 13.0226 50.48 13.1644C52.274 13.3069 53.8815 14.3209 54.7798 15.8769C55.6782 17.4329 55.7526 19.3321 54.979 20.957C54.209 22.5743 54.7211 24.4854 56.1966 25.5009C57.679 26.5213 58.5641 28.2033 58.5641 30C58.5641 31.7967 57.679 33.4787 56.1965 34.4991C54.7211 35.5146 54.2091 37.4257 54.979 39.043C55.7526 40.6679 55.6781 42.5671 54.7798 44.1231C53.8813 45.6791 52.274 46.6931 50.48 46.8356C48.6941 46.9775 47.2953 48.3765 47.1535 50.1621C47.0109 51.9562 45.9968 53.5637 44.4408 54.462C42.8849 55.3603 40.986 55.4348 39.3609 54.6613C37.7437 53.891 35.8326 54.4035 34.8169 55.8789C33.7965 57.3613 32.1146 58.2464 30.3179 58.2464C28.5211 58.2464 26.8393 57.3613 25.8188 55.8789C24.8033 54.4035 22.8923 53.8914 21.2749 54.6613C19.6499 55.435 17.7508 55.3604 16.1949 54.462C14.639 53.5637 13.6249 51.9564 13.4822 50.1622C13.3404 48.3766 11.9416 46.9775 10.1558 46.8356C8.36173 46.6931 6.75427 45.6791 5.85591 44.1231C4.95755 42.5671 4.88313 40.6679 5.65669 39.043C6.42673 37.4257 5.91462 35.5146 4.43911 34.4991C2.95669 33.4787 2.07157 31.7967 2.07157 30C2.07157 28.2033 2.95669 26.5213 4.43923 25.5009C5.91462 24.4854 6.42661 22.5743 5.65669 20.957C4.88313 19.3321 4.95767 17.4329 5.85591 15.8769C6.75438 14.3209 8.36173 13.3069 10.1558 13.1644C11.9415 13.0226 13.3404 11.6236 13.4822 9.83801C13.6249 8.04387 14.6389 6.43641 16.1949 5.53805C17.7507 4.6398 19.6499 4.56516 21.2749 5.33883C22.8924 6.10875 24.8033 5.59664 25.8188 4.12125C26.8393 2.63883 28.5211 1.75371 30.3179 1.75371C32.1146 1.75371 33.7965 2.63883 34.8169 4.12125C35.8325 5.59652 37.7434 6.10875 39.3609 5.33883C40.9859 4.56516 42.8849 4.63969 44.4408 5.53805C44.8893 5.79703 45.2964 6.11543 45.6509 6.48445C45.9862 6.83355 46.5414 6.84492 46.8908 6.50941C47.2401 6.17391 47.2512 5.61891 46.9157 5.26957C46.4468 4.78137 45.9092 4.36066 45.3176 4.01918C43.2616 2.83219 40.7528 2.73363 38.607 3.75527C37.7722 4.15277 36.7857 3.88852 36.2614 3.1268C34.9136 1.16895 32.6915 0 30.3176 0C27.9438 0 25.7217 1.16895 24.374 3.1268C23.8496 3.8884 22.8629 4.15254 22.0284 3.75527C19.8824 2.73375 17.3738 2.83219 15.3177 4.01918C13.2619 5.20605 11.9221 7.32926 11.7338 9.69902C11.6606 10.6207 10.9384 11.3428 10.0168 11.4161C7.64724 11.6044 5.52392 12.9442 4.33681 15C3.14981 17.0559 3.05126 19.5647 4.0729 21.7107C4.47028 22.5456 4.20603 23.5321 3.44454 24.0564C1.48657 25.404 0.317627 27.626 0.317627 30C0.317627 32.374 1.48657 34.596 3.44442 35.9436C4.20603 36.4679 4.4704 37.4544 4.0729 38.2893C3.05114 40.4353 3.14981 42.9441 4.33681 45C5.52392 47.0559 7.64712 48.3956 10.0165 48.5839C10.9382 48.6572 11.6604 49.3793 11.7336 50.3011C11.922 52.6707 13.2618 54.7939 15.3175 55.9807C17.3733 57.1678 19.8822 57.2664 22.0281 56.2446C22.8632 55.8473 23.8495 56.1116 24.3738 56.8731C25.7217 58.8311 27.9438 60 30.3176 60C32.6915 60 34.9136 58.8311 36.2613 56.8732C36.7857 56.1116 37.7724 55.8475 38.6069 56.2447C40.7528 57.2664 43.2616 57.1677 45.3175 55.9808C47.3733 54.7939 48.7131 52.6707 48.9015 50.301C48.9747 49.3793 49.6968 48.6572 50.6185 48.5839C52.9879 48.3957 55.1112 47.0559 56.2982 45C57.4852 42.9441 57.5838 40.4353 56.5621 38.2893C56.1649 37.4544 56.4291 36.4679 57.1907 35.9436Z" fill="#D74C20"/>
<path d="M11.3456 37.1068C10.9002 37.2968 10.6933 37.812 10.8833 38.2574C14.2116 46.0556 21.84 51.0943 30.3178 51.0943C41.9642 51.0943 51.4391 41.6193 51.4391 29.973C51.4391 18.3266 41.9642 8.85168 30.3178 8.85168C18.6715 8.85168 9.19653 18.3266 9.19653 29.973C9.19653 31.399 9.33962 32.8246 9.62169 34.2099C9.71837 34.6845 10.1816 34.9909 10.656 34.8941C11.1305 34.7975 11.4368 34.3345 11.3402 33.86C11.0814 32.5894 10.9502 31.2817 10.9502 29.973C10.9502 19.2937 19.6385 10.6054 30.3179 10.6054C40.9974 10.6054 49.6856 19.2937 49.6856 29.973C49.6856 40.6523 40.9972 49.3407 30.3178 49.3407C22.5437 49.3407 15.5483 44.7201 12.4963 37.5692C12.3061 37.1238 11.7913 36.9169 11.3456 37.1068Z" fill="#D74C20"/>
<path d="M20.4822 27.5886V18.7387C20.4822 18.2545 20.0898 17.8619 19.6054 17.8619C19.1211 17.8619 18.7285 18.2545 18.7285 18.7387V27.5886C18.7285 28.0728 19.1211 28.4654 19.6054 28.4654C20.0898 28.4654 20.4822 28.0728 20.4822 27.5886Z" fill="#D74C20"/>
<path d="M26.4584 26.7117C25.5153 26.7117 24.6053 26.329 24.0242 25.6879C23.6987 25.3289 23.1442 25.3018 22.7856 25.627C22.4268 25.9522 22.3995 26.5068 22.7247 26.8656C23.6325 27.8673 25.0283 28.4654 26.4584 28.4654C28.1839 28.4654 29.6877 27.3301 29.9567 25.8246C30.1606 24.6822 29.6303 23.1853 27.5304 22.4107C26.4062 21.996 25.3623 21.5436 25.0825 21.4208C24.8316 21.2327 24.7102 20.9352 24.7565 20.6134C24.8162 20.1974 25.1394 19.8625 25.6212 19.7173C26.9942 19.3038 28.2406 20.3002 28.2683 20.3227C28.6391 20.631 29.1896 20.5822 29.5002 20.2127C29.8118 19.8421 29.764 19.289 29.3932 18.9772C29.3135 18.9103 27.4152 17.3451 25.1154 18.0381C23.9801 18.3801 23.1774 19.2715 23.0204 20.3643C22.8741 21.384 23.3159 22.3649 24.1735 22.9239C24.2121 22.9491 24.2528 22.9712 24.2951 22.9901C24.3461 23.0128 25.558 23.5524 26.9235 24.056C27.8582 24.4008 28.3344 24.9331 28.2304 25.5163C28.1254 26.104 27.434 26.7117 26.4584 26.7117Z" fill="#D74C20"/>
<path d="M41.9069 23.1636C41.9069 20.2403 39.5286 17.8618 36.6051 17.8618C33.6817 17.8618 31.3032 20.2403 31.3032 23.1636C31.3032 26.087 33.6817 28.4654 36.6051 28.4654C39.5286 28.4654 41.9069 26.0871 41.9069 23.1636ZM33.0571 23.1636C33.0571 21.2072 34.6487 19.6155 36.6053 19.6155C38.5616 19.6155 40.1533 21.2072 40.1533 23.1636C40.1533 25.1201 38.5617 26.7117 36.6053 26.7117C34.6487 26.7117 33.0571 25.1201 33.0571 23.1636Z" fill="#D74C20"/>
<path d="M14.5652 30.7559C14.5652 31.2402 14.9576 31.6327 15.442 31.6327H45.1937C45.678 31.6327 46.0705 31.2402 46.0705 30.7559C46.0705 30.2717 45.678 29.8792 45.1937 29.8792H15.4421C14.9578 29.8792 14.5652 30.2717 14.5652 30.7559Z" fill="#D74C20"/>
</g>
<defs>
<clipPath id="clip0_681_102">
<rect width="60" height="60" fill="white" transform="translate(0.317627)"/>
</clipPath>
</defs>
</svg>
