<svg width="52" height="60" viewBox="0 0 52 60" fill="none" xmlns="http://www.w3.org/2000/svg">
<g clip-path="url(#clip0_92_1663)">
<path fill-rule="evenodd" clip-rule="evenodd" d="M43.9807 34.776H46.0824L46.0695 30.5635H44.0063L43.9807 34.776Z" fill="#D74C20"/>
<path fill-rule="evenodd" clip-rule="evenodd" d="M43.9935 43.1497H46.0439L46.0952 38.9372H43.9807L43.9935 43.1497Z" fill="#D74C20"/>
<path d="M42.9429 35.8002H39.7776V37.9001H42.9429V35.8002Z" fill="#D74C20"/>
<path d="M47.1213 35.8116L47.1191 37.9115L50.2844 37.9148L50.2866 35.815L47.1213 35.8116Z" fill="#D74C20"/>
<path fill-rule="evenodd" clip-rule="evenodd" d="M11.1491 23.2011C12.006 23.0831 12.8778 23.1398 13.7121 23.3675L13.8531 26.9911C13.9879 29.0356 14.7135 30.997 15.9419 32.6377C16.9669 34.1756 18.347 35.4448 19.9658 36.3381C19.9658 43.4315 14.9424 42.1383 7.66348 45.2241C2.38374 47.3752 0.615278 52.8425 1.10224 60H3.127C3.37049 55.2881 2.94759 48.4763 9.43194 46.8758V53.7132C7.89415 53.8797 6.5614 54.5583 6.54858 56.1076C6.54858 57.2343 6.44607 58.6684 6.4717 59.872H8.18889V57.1319C8.31704 56.1204 8.18889 56.7734 8.50927 56.5301C9.11157 55.3906 10.5597 55.8003 13.1098 55.8003C15.66 55.8003 17.1209 55.3906 17.6847 56.5557C18.2358 57.0039 17.9795 58.4507 18.0179 59.872H19.7095C19.7095 58.5916 19.7095 57.2215 19.7095 56.0948C19.7095 54.5455 18.3511 53.8669 16.8261 53.7004V44.2638C17.7422 44.0536 18.5892 43.6129 19.2866 42.9834C20.9141 43.6748 21.6061 45.2625 26.0144 45.365C28.7056 45.429 31.5505 44.5967 32.7935 42.9706L35.6513 44.4431V53.6364C32.9089 54.8144 32.345 54.187 32.5244 59.936L34.5748 60.0384C34.8055 55.1473 33.7034 55.8387 39.4957 55.8387C44.737 55.8387 43.9041 55.3009 44.045 59.936L46.1082 60.0384C46.2557 58.5756 46.1779 57.0988 45.8776 55.6594C45.3009 54.2254 44.5192 54.2254 43.0583 53.6364L42.9942 46.8758C48.825 48.3867 49.0044 53.6492 49.2991 60.0128H51.3239C51.5205 56.8588 51.1383 53.6954 50.1962 50.6787C47.8639 44.8144 42.4304 44.6863 37.1634 42.6761C33.9341 41.3957 32.5372 40.6274 32.5629 36.5301L35.2027 34.187C36.0671 33.4053 36.7872 32.4778 37.33 31.4469C37.9315 30.3169 38.3633 29.1046 38.6115 27.8489C38.9191 26.21 38.6884 24.8528 38.9447 23.3291C41.5077 23.3291 42.9814 23.5468 43.0583 20.7683C43.1352 17.9898 42.8661 16.9271 39.9058 16.9271C39.8161 11.6262 39.4573 8.92449 36.779 5.5058C32.345 3.39746e-05 20.504 -0.102399 15.9035 5.42897C13.1867 8.6556 12.6229 11.6518 12.5844 16.9527C10.7391 17.2087 9.56009 17.1703 9.44476 19.2574C9.32942 21.3445 9.29098 22.945 11.1491 23.1883V23.2011ZM24.1563 3.55957C25.534 3.33296 26.9417 3.36335 28.3083 3.6492V17.0167H23.067V19.2062H40.8413V21.2932H11.5336L11.6489 19.2062H16.7749V17.0423H14.6989C14.622 10.1665 16.4417 5.96674 21.9906 4.09735V8.69402L24.0922 8.60439L24.1563 3.55957ZM30.41 4.08454C34.7798 5.12167 37.7401 9.53909 37.7401 14.8272V17.0295H30.41V4.08454ZM36.6636 23.4059C36.9199 27.4008 36.1126 29.9104 34.1007 32.2664C27.3985 40.1281 13.9941 34.251 15.8138 23.3035L36.6636 23.4059ZM21.132 41.4085C21.6317 39.6799 22.0162 39.7952 22.029 37.3752C26.0785 37.9898 26.2067 38.3355 30.41 37.3752C30.41 39.808 30.7816 39.6415 31.2942 41.4597C29.6411 43.662 23.3746 44.0461 21.132 41.4085ZM14.7245 45.1857V53.7004H11.5336V46.0948L14.7245 45.1857ZM37.7914 45.1857L40.8797 46.0948V53.7772H37.7529L37.7914 45.1857Z" fill="#D74C20"/>
<path fill-rule="evenodd" clip-rule="evenodd" d="M9.1626 9.27017L11.0976 9.80794C11.559 9.00128 11.7384 8.18182 12.11 7.40077C12.462 6.61743 12.8913 5.8711 13.3915 5.17285C14.3956 3.83227 15.6327 2.68296 17.0438 1.77977L16.057 0C13.0711 1.12676 10.1622 5.81306 9.1626 9.27017Z" fill="#D74C20"/>
<path fill-rule="evenodd" clip-rule="evenodd" d="M4.19043 28.5788H6.30489L6.29208 24.3662H4.22887L4.19043 28.5788Z" fill="#D74C20"/>
<path fill-rule="evenodd" clip-rule="evenodd" d="M4.21606 36.9527H6.26645L6.30489 32.7401H4.19043L4.21606 36.9527Z" fill="#D74C20"/>
<path d="M3.16528 29.6032H0V31.7031H3.16528V29.6032Z" fill="#D74C20"/>
<path d="M7.34241 29.6131L7.33984 31.7129L10.5051 31.7168L10.5077 29.6169L7.34241 29.6131Z" fill="#D74C20"/>
<path fill-rule="evenodd" clip-rule="evenodd" d="M18.8635 19.1422L20.9908 19.155L20.9652 17.0295L18.8763 17.0423L18.8635 19.1422Z" fill="#D74C20"/>
<path fill-rule="evenodd" clip-rule="evenodd" d="M22.016 12.8297L23.0924 12.8681L23.3103 12.8809L24.1176 12.7785L24.1304 10.7938L22.0032 10.8066L22.016 12.8297Z" fill="#D74C20"/>
<path fill-rule="evenodd" clip-rule="evenodd" d="M8.43213 14.9553H10.38L10.5466 13.0731L8.47057 12.9322L8.43213 14.9553Z" fill="#D74C20"/>
</g>
<defs>
<clipPath id="clip0_92_1663">
<rect width="51.375" height="60" fill="white"/>
</clipPath>
</defs>
</svg>
