<svg width="61" height="60" viewBox="0 0 61 60" fill="none" xmlns="http://www.w3.org/2000/svg">
<g clip-path="url(#clip0_92_1679)">
<path d="M19.2061 53.1754C14.8023 51.1081 11.0765 47.8322 8.46282 43.7291C5.8491 39.6261 4.45501 34.8648 4.44294 30C4.43057 24.6557 6.10654 19.4441 9.23167 15.1088L11.037 16.3892C8.18473 20.3532 6.65671 25.1165 6.67085 30C6.6705 34.4519 7.93845 38.8118 10.3262 42.5693C12.714 46.3267 16.1228 49.3261 20.1536 51.2164L19.2061 53.1754Z" fill="#D74C20"/>
<path d="M13.342 13.6747L11.7415 12.1126C12.2536 11.6005 12.7914 11.0883 13.3676 10.6017L14.8144 12.2791C14.2895 12.74 13.7901 13.201 13.342 13.6747Z" fill="#D74C20"/>
<path d="M40.794 53.1754L39.8593 51.2164C44.6725 48.9705 48.5758 45.1501 50.9246 40.3863C53.2734 35.6224 53.9273 30.2 52.7782 25.0143C51.6292 19.8287 48.7459 15.19 44.6046 11.8643C40.4633 8.53855 35.3115 6.72466 30.0001 6.72216C25.593 6.68753 21.2672 7.90889 17.5289 10.2433L16.3381 8.36108C19.2962 6.42541 22.6231 5.12316 26.1092 4.53636C29.5953 3.94955 33.1651 4.09088 36.5939 4.95146C40.0227 5.81204 43.2362 7.37322 46.032 9.53671C48.8278 11.7002 51.1454 14.4191 52.8388 17.5222C54.5323 20.6254 55.5648 24.0456 55.8716 27.5674C56.1783 31.0892 55.7525 34.6363 54.6211 37.9855C53.4896 41.3347 51.6769 44.4133 49.2972 47.0276C46.9176 49.6418 44.0224 51.735 40.794 53.1754Z" fill="#D74C20"/>
<path d="M22.3432 39.2317L20.7683 37.6568L28.8989 29.539V9.99994H31.114V30.4609L22.3432 39.2317Z" fill="#D74C20"/>
<path d="M36.6838 52.2919L34.4815 51.9334L35.3521 46.5429L29.9104 45.5185L30.3201 43.3418L37.9002 44.7503L36.6838 52.2919Z" fill="#D74C20"/>
<path d="M20.4079 11.1459L18.4785 12.2599L20.604 15.9413L22.5334 14.8273L20.4079 11.1459Z" fill="#D74C20"/>
<path d="M20.5997 44.0875L18.4678 47.78L20.3972 48.894L22.5291 45.2015L20.5997 44.0875Z" fill="#D74C20"/>
<path d="M12.2504 18.4605L11.1365 20.39L14.8179 22.5154L15.9319 20.586L12.2504 18.4605Z" fill="#D74C20"/>
<path d="M13.329 28.8988H8.88599V31.1267H13.329V28.8988Z" fill="#D74C20"/>
<path d="M14.8025 37.5035L11.1428 39.6155L12.2564 41.5452L15.9161 39.4331L14.8025 37.5035Z" fill="#D74C20"/>
<path d="M39.6147 11.1419L37.4893 14.8233L39.4187 15.9373L41.5442 12.2559L39.6147 11.1419Z" fill="#D74C20"/>
<path d="M47.7663 18.4618L44.0845 20.5866L45.1981 22.5163L48.8799 20.3914L47.7663 18.4618Z" fill="#D74C20"/>
<path d="M51.1139 28.8988H46.6709V31.1267H51.1139V28.8988Z" fill="#D74C20"/>
<path d="M45.203 37.4885L44.0894 39.4181L47.749 41.5301L48.8626 39.6005L45.203 37.4885Z" fill="#D74C20"/>
<path d="M49.9361 52.4968L48.4636 50.8322C52.6967 47.0816 55.6739 42.1198 56.9912 36.6197L59.155 37.1319C57.7244 43.0752 54.507 48.4376 49.9361 52.4968Z" fill="#D74C20"/>
<path d="M43.0219 57.0422L42.0488 55.0576C43.3565 54.4305 44.6112 53.6982 45.8004 52.8681L47.0808 54.6991C45.7974 55.5914 44.4443 56.3793 43.0347 57.055" fill="#D74C20"/>
<path d="M3.0218 23.3802L0.85791 22.8553C2.30296 16.9027 5.54379 11.5386 10.1409 7.49036L11.6134 9.15489C7.35955 12.9043 4.36039 17.8701 3.0218 23.3802Z" fill="#D74C20"/>
<path d="M14.1998 7.14464L12.9194 5.32646C14.2021 4.42921 15.5552 3.63704 16.9655 2.9577L17.9258 4.96795C16.6225 5.59842 15.3684 6.32604 14.1742 7.14464" fill="#D74C20"/>
<path d="M57.721 20.128L55.6595 19.2958C58.4508 12.484 58.4764 7.00383 55.7491 4.26376C55.047 3.57453 54.1977 3.05357 53.2651 2.74007L54.0078 0.640198C55.2479 1.06819 56.3766 1.76817 57.3112 2.68885C60.7683 6.15876 60.9092 12.3431 57.721 20.128Z" fill="#D74C20"/>
<path d="M10.0513 60C8.70576 60.0759 7.35888 59.8767 6.09299 59.4143C4.8271 58.952 3.66881 58.2364 2.68893 57.3111C1.77775 56.3813 1.08265 55.2622 0.653076 54.0333L2.75295 53.2906C3.06911 54.2144 3.58998 55.0549 4.27664 55.749C9.20621 60.7938 22.8042 56.0819 35.8515 44.8143L37.2984 46.5045C27.2216 55.2113 17.196 60 10.0513 60Z" fill="#D74C20"/>
<path d="M40.5763 4.19972L39.7568 2.13826C41.1053 1.59537 42.4866 1.13778 43.8926 0.768219L44.4431 2.93211C43.1378 3.28015 41.855 3.70776 40.6019 4.21252" fill="#D74C20"/>
<path d="M46.991 2.40715L46.6709 0.20484C48.133 -0.0156108 49.6167 -0.0543171 51.0883 0.0896034L50.8578 2.29191C49.5777 2.16941 48.2872 2.20813 47.0166 2.40715" fill="#D74C20"/>
<path d="M0.0896764 51.1139C-0.0612837 49.6341 -0.0225579 48.141 0.204913 46.6709L2.40722 46.991C2.20914 48.2617 2.17043 49.552 2.29198 50.8323L0.0896764 51.1139Z" fill="#D74C20"/>
<path d="M2.89376 44.571L0.742676 44.0333C1.08387 42.6338 1.51149 41.2569 2.02309 39.9103L4.09735 40.717C3.58794 41.9684 3.16024 43.2515 2.81694 44.5582" fill="#D74C20"/>
</g>
<defs>
<clipPath id="clip0_92_1679">
<rect width="60.0128" height="60" fill="white"/>
</clipPath>
</defs>
</svg>
