<svg width="64" height="60" viewBox="0 0 64 60" fill="none" xmlns="http://www.w3.org/2000/svg">
<g clip-path="url(#clip0_92_1706)">
<path d="M5.45455 60H0V57.8233H5.45455C5.74319 57.8233 6.02002 57.7087 6.22412 57.5045C6.42823 57.3004 6.54289 57.0236 6.54289 56.735V43.6364C6.54289 43.3477 6.42823 43.0709 6.22412 42.8668C6.02002 42.6627 5.74319 42.548 5.45455 42.548H0V40.3713H5.45455C6.32167 40.3713 7.15347 40.7149 7.76782 41.3269C8.38217 41.9388 8.72901 42.7693 8.73239 43.6364V56.735C8.72901 57.6021 8.38217 58.4325 7.76782 59.0445C7.15347 59.6564 6.32167 60 5.45455 60Z" fill="#D74C20"/>
<path d="M4.35345 44.7247H2.17676V46.9014H4.35345V44.7247Z" fill="#D74C20"/>
<path d="M9.79505 45.8259H7.68237V43.6364H9.79505C9.96111 43.6379 10.1252 43.6004 10.2742 43.527C10.4232 43.4537 10.5529 43.3464 10.6529 43.2138C12.5607 40.717 17.7976 34.9168 25.0959 34.9168H40.3712C41.4867 34.9772 42.5365 35.4629 43.3047 36.2739C44.0729 37.0849 44.5011 38.1595 44.5011 39.2766C44.5011 40.3936 44.0729 41.4682 43.3047 42.2792C42.5365 43.0902 41.4867 43.5759 40.3712 43.6364H27.2726V41.4597H40.3712C40.9214 41.4175 41.4353 41.1692 41.8102 40.7645C42.1851 40.3597 42.3934 39.8283 42.3934 39.2766C42.3934 38.7248 42.1851 38.1935 41.8102 37.7887C41.4353 37.3839 40.9214 37.1356 40.3712 37.0935H25.0959C18.7707 37.1319 14.0844 42.2535 12.3815 44.5455C12.0813 44.9408 11.6942 45.2619 11.2502 45.4839C10.8062 45.7059 10.3171 45.8229 9.82066 45.8259" fill="#D74C20"/>
<path d="M28.7451 56.735H7.68237V54.5455H28.7451C29.8298 54.5487 30.9089 54.389 31.9461 54.0717L42.9449 50.6786C43.78 50.4115 44.5514 49.9757 45.2112 49.3982L60.5121 36.5941C60.6984 36.4379 60.847 36.2416 60.9468 36.0199C61.0465 35.7982 61.0949 35.5568 61.0883 35.3137C61.0899 35.0281 61.0163 34.7471 60.8748 34.499C60.7334 34.2509 60.5291 34.0444 60.2824 33.9003C60.0358 33.7562 59.7556 33.6797 59.47 33.6783C59.1844 33.6769 58.9035 33.7508 58.6555 33.8925L42.4967 43.0858L41.434 41.178L57.6184 32.1255C58.4491 31.7119 59.4015 31.613 60.2995 31.8472C61.1975 32.0813 61.9804 32.6326 62.5034 33.3992C63.0264 34.1658 63.2543 35.0958 63.1448 36.0174C63.0353 36.9389 62.5958 37.7896 61.9077 38.4123L46.5428 51.2164C45.6557 51.9323 44.6318 52.4595 43.5338 52.7657L32.5351 56.146C31.2915 56.5337 29.9966 56.7323 28.6939 56.735" fill="#D74C20"/>
<path d="M43.6364 6.54292H41.4597V13.0858H43.6364V6.54292Z" fill="#D74C20"/>
<path d="M39.2702 0H37.0935V6.54289H39.2702V0Z" fill="#D74C20"/>
<path d="M28.361 20.7298H26.1843V27.2727H28.361V20.7298Z" fill="#D74C20"/>
<path d="M23.9948 28.3611H21.8181V32.7272H23.9948V28.3611Z" fill="#D74C20"/>
<path d="M21.831 15.2753C21.2508 15.2998 20.6717 15.207 20.1282 15.0024C19.5848 14.7978 19.0883 14.4856 18.6684 14.0845C18.0996 13.4526 17.7059 12.683 17.5262 11.852C17.3465 11.021 17.3871 10.1575 17.644 9.347C18.1677 7.42441 19.198 5.67771 20.6274 4.28939C22.0127 2.85066 23.7596 1.81132 25.685 1.28042C26.4953 1.02223 27.3592 0.980946 28.1904 1.16067C29.0216 1.3404 29.7913 1.73487 30.4225 2.30475C30.9947 2.93467 31.3906 3.7043 31.5705 4.53604C31.7503 5.36779 31.7077 6.23225 31.4468 7.04227C30.9232 8.96486 29.8929 10.7116 28.4635 12.0999C27.0752 13.5293 25.3285 14.5596 23.4059 15.0832C22.89 15.2071 22.3616 15.2716 21.831 15.2753ZM27.2599 3.27786C26.8979 3.28241 26.5373 3.32533 26.1844 3.4059C24.659 3.83963 23.2761 4.67028 22.1767 5.81307C21.0339 6.9125 20.2032 8.29544 19.7695 9.82076C19.6202 10.273 19.5818 10.7545 19.6576 11.2247C19.7333 11.6949 19.921 12.14 20.2049 12.5224C20.5858 12.8092 21.031 12.9987 21.5018 13.0746C21.9726 13.1505 22.4547 13.1104 22.9065 12.9578C24.4226 12.5199 25.7963 11.6895 26.8886 10.5506C28.0471 9.45938 28.8879 8.07428 29.3214 6.54291C29.4729 6.09097 29.5124 5.60902 29.4366 5.13844C29.3607 4.66786 29.1718 4.22272 28.886 3.84124C28.4391 3.44695 27.8549 3.24454 27.2599 3.27786Z" fill="#D74C20"/>
<path d="M25.1089 18.5531C24.5208 18.564 23.9365 18.4561 23.3909 18.2362C22.8453 18.0162 22.3497 17.6885 21.9335 17.2727L18.6685 14.0845L20.2049 12.548L23.4828 15.8131C24.6096 16.9398 27.6313 16.4149 30.1921 13.854C32.5097 11.5237 33.4188 8.38669 32.164 7.11909L28.8861 3.84124L30.4226 2.30475L33.7005 5.56979C35.89 7.7721 34.9809 12.0743 31.7414 15.3649C30.0233 17.2417 27.6477 18.3837 25.1089 18.5531Z" fill="#D74C20"/>
<path d="M44.8912 30.5506C42.4841 30.5506 39.7696 28.5019 38.2331 25.2369C37.0835 23.0656 36.8086 20.5366 37.4649 18.169C37.6295 17.6197 37.9039 17.1095 38.2714 16.6693C38.639 16.2292 39.092 15.8682 39.6031 15.6082C42.3304 14.3278 46.0052 16.4789 47.9514 20.5506C49.1002 22.7175 49.3751 25.2422 48.7197 27.6056C48.5571 28.1559 48.2835 28.667 47.9157 29.1075C47.5479 29.5479 47.0938 29.9083 46.5814 30.1664C46.0546 30.4216 45.4765 30.553 44.8912 30.5506ZM41.2805 17.4648C41.0288 17.461 40.7795 17.5135 40.5507 17.6184C40.3023 17.7516 40.0835 17.9338 39.9075 18.1538C39.7314 18.3739 39.6018 18.6273 39.5263 18.8988C39.0599 20.7293 39.3023 22.6684 40.2049 24.3278C41.703 27.452 44.2766 28.8988 45.6339 28.2458C45.8813 28.1114 46.0994 27.9289 46.2753 27.709C46.4512 27.4892 46.5814 27.2363 46.6582 26.9654C47.1146 25.147 46.8724 23.2235 45.9796 21.5749C44.7248 18.8988 42.7017 17.4648 41.2805 17.4648Z" fill="#D74C20"/>
<path d="M40.5249 32.7401C38.1305 32.7401 35.4032 30.6914 33.8795 27.4136C32.0101 23.3931 32.5223 19.2062 35.1855 17.9258L39.5389 15.7491L40.5249 17.6953L36.1587 19.8848C34.7886 20.5634 34.3405 23.4059 35.8386 26.5301C37.3366 29.6543 39.9103 31.1012 41.2803 30.4482L45.6593 28.169L46.6452 30.1153L42.1766 32.3432C41.6619 32.5925 41.0967 32.7195 40.5249 32.7145" fill="#D74C20"/>
<path d="M39.2702 8.73241H37.0935V10.9091H39.2702V8.73241Z" fill="#D74C20"/>
</g>
<defs>
<clipPath id="clip0_92_1706">
<rect width="63.2778" height="60" fill="white"/>
</clipPath>
</defs>
</svg>
