<svg width="314" height="60" viewBox="0 0 314 60" fill="none" xmlns="http://www.w3.org/2000/svg">
<path d="M67.4297 24.59H87.9427V29.0036H73.2761V31.5257H86.9851V35.7627H73.2761V39.0162H67.4549V24.59H67.4297Z" fill="#0D4373"/>
<path d="M107.75 38.9154C106.263 39.2938 104.298 39.4703 101.828 39.4703C100.845 39.4703 99.8373 39.4451 98.804 39.3694C96.536 39.2181 94.7468 38.7137 93.4364 37.8814C91.874 36.8726 91.0928 35.2837 91.0928 33.1399V24.5901H96.914V32.5094C96.914 33.8965 97.67 34.754 99.2073 35.0567C99.8121 35.1576 100.669 35.2332 101.803 35.2332C102.206 35.2332 102.634 35.2332 103.063 35.208C103.516 35.1828 103.945 35.1323 104.373 35.0567C104.802 34.981 105.18 34.8297 105.533 34.6531C105.885 34.4514 106.163 34.1992 106.364 33.8461C106.566 33.493 106.667 33.0642 106.667 32.5346V24.5901H112.488V33.1399C112.563 36.1916 110.951 38.1336 107.75 38.9154Z" fill="#0D4373"/>
<path d="M123.324 24.5901L131.741 33.0895V24.5901H137.562V38.9911H130.355L121.938 30.4917V38.9911H116.117V24.5901H123.324Z" fill="#0D4373"/>
<path d="M155.202 38.9911L155.177 39.0415L141.166 38.9911V24.5901H155.202C156.26 24.5901 157.319 24.7666 158.327 25.0945C159.36 25.4476 160.192 25.9016 160.822 26.4816C162.409 27.9697 163.216 29.7351 163.216 31.778C163.216 33.8209 162.409 35.5863 160.822 37.0743C160.192 37.6544 159.36 38.1336 158.327 38.4615C157.294 38.8146 156.26 38.9911 155.202 38.9911ZM157.369 31.778C157.369 30.7187 157.042 29.9621 156.412 29.5081C155.933 29.155 155.353 28.9785 154.723 28.9785H146.987V34.5775H154.723C155.353 34.5775 155.933 34.4009 156.412 34.0478C157.067 33.5939 157.369 32.8373 157.369 31.778Z" fill="#0D4373"/>
<path d="M163.543 38.9912L172.288 24.5649H179.697L188.416 38.9912H181.335L180.377 37.1501H171.608L170.625 38.9912H163.543ZM178.16 32.913L175.992 28.802L173.825 32.913H178.16Z" fill="#0D4373"/>
<path d="M197.135 31.0214L196.858 30.2396V39.0164H191.037V24.6154H199.378L203.788 33.5687L208.198 24.6154H216.514V39.0164H210.693V30.2396L210.416 31.0214L206.434 38.9911H201.041L197.135 31.0214Z" fill="#0D4373"/>
<path d="M225.914 34.754H240.58V38.9911H220.067V24.5901H240.404V28.8019H225.889V30.1639H239.598V33.3417H225.889V34.754H225.914Z" fill="#0D4373"/>
<path d="M251.265 24.5901L259.682 33.0895V24.5901H265.503V38.9911H258.296L249.879 30.4917V38.9911H244.058V24.5901H251.265Z" fill="#0D4373"/>
<path d="M268.124 28.9786V24.5649H289.847V28.9786H281.909V38.9659H276.087V28.9786H268.124Z" fill="#0D4373"/>
<path d="M288.637 38.9912L297.382 24.5649H304.791L313.51 38.9912H306.429L305.471 37.1501H296.701L295.718 38.9912H288.637ZM303.228 32.913L301.061 28.802L298.894 32.913H303.228Z" fill="#0D4373"/>
<path d="M36.66 56.9736L65.9678 6.17911C67.1774 4.06058 65.6654 1.43762 63.221 1.43762H4.6053C2.16088 1.43762 0.648865 4.0858 1.85848 6.17911L31.1663 56.9736C32.3759 59.0669 35.4252 59.0669 36.66 56.9736Z" fill="white"/>
<path d="M33.9132 60C32.25 60 30.7632 59.1425 29.9316 57.7049L0.623705 6.91046C-0.207902 5.47289 -0.207902 3.75788 0.623705 2.29508C1.45531 0.832284 2.94213 0 4.60534 0H63.1958C64.8591 0 66.3459 0.857505 67.1775 2.29508C68.0091 3.73266 68.0091 5.44767 67.1775 6.91046L37.8948 57.6797C37.0632 59.1173 35.5764 60 33.9132 60ZM4.60534 2.87516C3.69813 2.87516 3.26973 3.48045 3.11853 3.73266C2.96733 3.98486 2.66492 4.69104 3.11853 5.47288L32.4264 56.2673C32.88 57.0492 33.636 57.1248 33.9132 57.1248C34.2156 57.1248 34.9716 57.0492 35.4 56.2673L36.6348 56.9987L35.4 56.2673L64.7078 5.47288C65.1615 4.69104 64.8591 4.01009 64.7078 3.73266C64.5566 3.48045 64.1031 2.87516 63.221 2.87516H4.60534Z" fill="#0D4373"/>
<path d="M55.4088 12.9129L17.7596 22.2194L19.2717 19.4956L13.3496 8.27234H54.4764L52.8887 11.2484L55.4088 12.9129Z" fill="#0D4373"/>
<path d="M46.2108 24.0101L47.5212 24.8676L23.6566 30.7945L24.4126 29.3065L21.439 23.657L50.1168 16.5448L46.2108 24.0101Z" fill="#0D4373"/>
<path d="M40.7676 34.3757L42.3804 35.4097L27.5879 39.092L28.5959 37.2508L26.2271 32.7868L43.8924 28.4236L40.7676 34.3757Z" fill="#0D4373"/>
<path d="M38.3228 38.9912L34.4168 46.4565L33.9128 47.4149L30.5107 40.9332L38.3228 38.9912Z" fill="#0D4373"/>
</svg>
