<svg width="60" height="60" viewBox="0 0 60 60" fill="none" xmlns="http://www.w3.org/2000/svg">
<g clip-path="url(#clip0_92_1744)">
<path d="M49.2027 44.0746H29.9901C29.5175 44.0746 29.0495 43.9792 28.6132 43.794C28.1768 43.6088 27.7806 43.3374 27.4475 42.9954C27.1143 42.6534 26.8506 42.2475 26.6717 41.8012C26.4927 41.3548 26.4021 40.8768 26.4048 40.3945V23.1779C26.4048 22.2056 26.7819 21.2728 27.4536 20.5832C28.1254 19.8937 29.0373 19.5035 29.9901 19.4978H49.2027C49.6764 19.509 50.1432 19.6153 50.5766 19.8106C51.0099 20.0059 51.4013 20.2865 51.7284 20.6362C52.0555 20.986 52.3118 21.3981 52.4827 21.8489C52.6537 22.2998 52.7359 22.7806 52.7247 23.2639V40.4806C52.7275 40.9628 52.6368 41.4409 52.4579 41.8873C52.2789 42.3336 52.0153 42.7395 51.6821 43.0815C51.3489 43.4235 50.9527 43.6949 50.5164 43.8801C50.08 44.0653 49.6121 44.1607 49.1395 44.1606L49.2027 44.0746ZM29.9901 22.0373C29.673 22.0428 29.3703 22.1738 29.1461 22.4027C28.9218 22.6315 28.7934 22.9403 28.788 23.2639V40.4806C28.788 40.8059 28.9146 41.1179 29.1401 41.348C29.3655 41.578 29.6713 41.7073 29.9901 41.7073H49.2027C49.5216 41.7073 49.8273 41.578 50.0528 41.348C50.2782 41.1179 50.4048 40.8059 50.4048 40.4806V23.2639C50.3994 22.9403 50.271 22.6315 50.0468 22.4027C49.8225 22.1738 49.5199 22.0428 49.2027 22.0373H29.9901Z" fill="#0D4373"/>
<path d="M51.6066 59.9999V57.5466C52.5127 57.4757 53.3592 57.0584 53.9767 56.3781C54.5943 55.6977 54.9373 54.8046 54.9373 53.8773C54.9373 52.9499 54.5943 52.0568 53.9767 51.3765C53.3592 50.6962 52.5127 50.2788 51.6066 50.208H25.3078C24.8125 50.1692 24.3146 50.2353 23.8455 50.4022C23.3763 50.569 22.946 50.833 22.5816 51.1775C22.2171 51.522 21.9263 51.9396 21.7274 52.4042C21.5286 52.8688 21.4259 53.3703 21.4259 53.8773C21.4259 54.3842 21.5286 54.8857 21.7274 55.3503C21.9263 55.8149 22.2171 56.2325 22.5816 56.577C22.946 56.9216 23.3763 57.1855 23.8455 57.3523C24.3146 57.5192 24.8125 57.5853 25.3078 57.5466V59.9999C24.49 60.0494 23.6708 59.9278 22.9007 59.6425C22.1306 59.3572 21.4258 58.9142 20.8296 58.3408C20.2334 57.7674 19.7583 57.0757 19.4336 56.3081C19.1089 55.5405 18.9414 54.7133 18.9414 53.8773C18.9414 53.0412 19.1089 52.214 19.4336 51.4464C19.7583 50.6789 20.2334 49.9871 20.8296 49.4137C21.4258 48.8403 22.1306 48.3974 22.9007 48.1121C23.6708 47.8267 24.49 47.7051 25.3078 47.7546H51.6066C53.1364 47.8472 54.5738 48.5326 55.6248 49.6706C56.6759 50.8087 57.2613 52.3134 57.2613 53.8773C57.2613 55.4411 56.6759 56.9458 55.6248 58.0839C54.5738 59.222 53.1364 59.9073 51.6066 59.9999Z" fill="#0D4373"/>
<path d="M2.40422 57.5466H0V60H2.40422V57.5466Z" fill="#0D4373"/>
<path d="M60.0004 57.5466H4.80884V60H60.0004V57.5466Z" fill="#0D4373"/>
<path d="M45.5964 20.8105H43.1921V42.8479H45.5964V20.8105Z" fill="#0D4373"/>
<path d="M39.4262 27.8314L38.054 29.2312L39.7537 30.9663L41.1259 29.5665L39.4262 27.8314Z" fill="#0D4373"/>
<path d="M35.8454 31.476L32.0725 35.326L33.7726 37.0608L37.5455 33.2108L35.8454 31.476Z" fill="#0D4373"/>
<path d="M35.8498 24.128L30.8682 29.2097L32.5679 30.9448L37.5496 25.8631L35.8498 24.128Z" fill="#0D4373"/>
<path d="M33.5959 42.8479H31.1917V48.9598H33.5959V42.8479Z" fill="#0D4373"/>
<path d="M48.0002 42.8479H45.5959V48.9598H48.0002V42.8479Z" fill="#0D4373"/>
<path d="M4.80829 9.79196C3.85638 9.79622 2.92465 9.51207 2.13114 8.9755C1.33763 8.43894 0.718039 7.67411 0.350864 6.7779C-0.0163112 5.8817 -0.114548 4.89444 0.0685977 3.94122C0.251744 2.98799 0.708031 2.11168 1.37966 1.4233C2.05128 0.734929 2.90802 0.265465 3.84133 0.0743862C4.77465 -0.116692 5.74255 -0.0207873 6.6224 0.349952C7.50226 0.720691 8.25448 1.34958 8.78378 2.15695C9.31307 2.96432 9.59562 3.91384 9.59563 4.88521C9.59565 6.18284 9.09194 7.42764 8.19474 8.34722C7.29754 9.26679 6.07991 9.78627 4.80829 9.79196ZM4.80829 2.45336C4.33101 2.44911 3.86329 2.58992 3.4647 2.85785C3.06611 3.12579 2.7547 3.50872 2.57012 3.95789C2.38554 4.40705 2.33616 4.90211 2.42825 5.38001C2.52034 5.85792 2.74975 6.29704 3.08725 6.64144C3.42475 6.98584 3.85507 7.21993 4.3234 7.31391C4.79173 7.40789 5.27687 7.35749 5.71703 7.16914C6.1572 6.98079 6.53246 6.66301 6.79503 6.25627C7.0576 5.84953 7.19558 5.37225 7.19142 4.88521C7.18591 4.24199 6.93306 3.62669 6.48733 3.17185C6.04159 2.717 5.43863 2.45898 4.80829 2.45336Z" fill="#0D4373"/>
<path d="M4.80829 36.736C3.85638 36.7403 2.92465 36.4562 2.13114 35.9196C1.33763 35.383 0.718039 34.6182 0.350864 33.722C-0.0163112 32.8258 -0.114548 31.8385 0.0685977 30.8853C0.251744 29.9321 0.708031 29.0558 1.37966 28.3674C2.05128 27.679 2.90802 27.2096 3.84133 27.0185C4.77465 26.8274 5.74255 26.9233 6.6224 27.294C7.50226 27.6648 8.25448 28.2937 8.78378 29.101C9.31307 29.9084 9.59562 30.8579 9.59563 31.8293C9.59565 33.1269 9.09194 34.3717 8.19474 35.2913C7.29754 36.2109 6.07991 36.7304 4.80829 36.736ZM4.80829 29.3759C4.3319 29.3717 3.86501 29.5119 3.46688 29.7789C3.06874 30.0459 2.75731 30.4275 2.5721 30.8754C2.38689 31.3233 2.33626 31.8173 2.42663 32.2946C2.51701 32.7719 2.74431 33.2111 3.07969 33.5563C3.41507 33.9016 3.84341 34.1374 4.31035 34.2338C4.77729 34.3303 5.26177 34.283 5.70231 34.0979C6.14286 33.9129 6.5196 33.5984 6.78472 33.1945C7.04984 32.7906 7.1914 32.3154 7.19142 31.8293C7.19144 31.1823 6.94104 30.5616 6.49471 30.1021C6.04838 29.6426 5.44226 29.3816 4.80829 29.3759Z" fill="#0D4373"/>
<path d="M16.2692 10.6161L14.4912 12.2676L26.7 25.9544L28.478 24.3029L16.2692 10.6161Z" fill="#0D4373"/>
<path d="M3.60661 7.63977H1.20239V29.096H3.60661V7.63977Z" fill="#0D4373"/>
<path d="M8.41545 7.63977H6.01123V29.096H8.41545V7.63977Z" fill="#0D4373"/>
<path d="M7.72094 6.52315L6.71973 8.75366L34.9246 21.9369L35.9258 19.7064L7.72094 6.52315Z" fill="#0D4373"/>
<path d="M7.85741 1.21309L6.8562 3.4436L46.412 21.9324L47.4132 19.7019L7.85741 1.21309Z" fill="#0D4373"/>
<path d="M11.8946 51.4347C11.4717 51.4293 11.0602 51.2943 10.7135 51.0473L0.885765 44.1176C0.616065 43.9217 0.395345 43.6638 0.241464 43.3647C0.0875832 43.0656 0.00486415 42.7337 0 42.3959L0 31.8292H2.40422V42.2023L11.8735 48.8737L17.9895 43.515V38.4576L15.8805 40.7173L6.79086 35.4447L7.97188 33.2926L15.3954 37.5968L16.8717 36.1119C17.1684 35.8513 17.5304 35.6801 17.9171 35.6175C18.3038 35.5549 18.6999 35.6034 19.0611 35.7576C19.4223 35.9117 19.7343 36.1654 19.9622 36.4902C20.1901 36.8151 20.3249 37.1982 20.3515 37.5968V43.6872C20.3479 43.9839 20.2842 44.2766 20.1644 44.5469C20.0447 44.8173 19.8714 45.0594 19.6555 45.2582L13.2232 50.9182C12.8581 51.2521 12.3848 51.4361 11.8946 51.4347Z" fill="#0D4373"/>
<path d="M46.7982 52.6399H25.2024V55.0933H46.7982V52.6399Z" fill="#0D4373"/>
<path d="M51.6064 52.6399H49.2021V55.0933H51.6064V52.6399Z" fill="#0D4373"/>
<path d="M57.5956 28.1708H55.1914V30.6241H57.5956V28.1708Z" fill="#0D4373"/>
<path d="M57.5956 33.0559H55.1914V40.3945H57.5956V33.0559Z" fill="#0D4373"/>
<path d="M49.2026 1.22668H46.7983V6.13343H49.2026V1.22668Z" fill="#0D4373"/>
<path d="M49.2026 11.0187H46.7983V15.9254H49.2026V11.0187Z" fill="#0D4373"/>
<path d="M54.0111 7.3385H50.4048V9.79187H54.0111V7.3385Z" fill="#0D4373"/>
<path d="M45.5961 7.3385H41.9897V9.79187H45.5961V7.3385Z" fill="#0D4373"/>
</g>
<defs>
<clipPath id="clip0_92_1744">
<rect width="60" height="60" fill="white"/>
</clipPath>
</defs>
</svg>
