<svg width="60" height="60" viewBox="0 0 60 60" fill="none" xmlns="http://www.w3.org/2000/svg">
<g clip-path="url(#clip0_92_1773)">
<path d="M38.1343 52.7164H36.0935V60H38.1343V52.7164Z" fill="#0D4373"/>
<path d="M22.8965 52.7164H20.8557V60H22.8965V52.7164Z" fill="#0D4373"/>
<path d="M29.4853 46.4876C26.8808 46.4876 24.9177 45.1344 24.9177 43.3632H26.8614C26.8614 43.6617 27.7554 44.398 29.4075 44.398C31.0596 44.398 31.9537 43.6617 31.9537 43.3632H33.8973C33.8973 45.1344 31.9537 46.4876 29.3298 46.4876" fill="#0D4373"/>
<path d="M29.9904 40.2388H28.9797V38.2487H29.9904C31.3394 38.2435 32.6317 37.6925 33.5856 36.7158C34.5395 35.7391 35.0776 34.416 35.0828 33.0348V27.0646H37.0264V33.0348C37.0264 34.9665 36.2769 36.8191 34.9428 38.1851C33.6088 39.551 31.7994 40.3184 29.9127 40.3184" fill="#0D4373"/>
<path d="M44.2181 60H42.1773V51.7413C42.1773 49.813 41.4305 47.9634 40.1006 46.598C38.7707 45.2327 36.9663 44.463 35.083 44.4577H32.0315V38.4875H33.9751V42.4676H35.0053C37.4265 42.4729 39.747 43.46 41.4591 45.213C43.1711 46.9659 44.1352 49.3419 44.1403 51.8209L44.2181 60Z" fill="#0D4373"/>
<path d="M16.7928 60H14.752V51.7413C14.7571 49.2589 15.7239 46.8799 17.4401 45.1264C19.1564 43.3729 21.4819 42.3881 23.9065 42.3881H24.9172V38.7264C23.9784 38.1017 23.2074 37.2464 22.6743 36.2383C22.1413 35.2302 21.8633 34.1016 21.8657 32.9553V27.8607C21.8657 23.2438 24.0814 20.5771 27.9687 20.5771H31.4283C32.3765 20.5349 33.2977 20.2412 34.1018 19.7249C34.9059 19.2086 35.5652 18.4874 36.0153 17.6319L36.9288 16.199L37.8035 17.4727C38.6258 18.6417 39.1229 20.0172 39.2417 21.4528C39.2417 25.0747 37.4925 28.7363 34.1494 28.7363H33.0416V26.7463H34.0522C36.2874 26.7463 37.1037 23.5423 37.1037 21.5324C37.0824 21.01 36.9636 20.4966 36.7539 20.0199C36.0965 20.8122 35.2812 21.4512 34.3626 21.8939C33.444 22.3367 32.4435 22.5731 31.4283 22.5871H27.9687C26.958 22.5871 23.9065 22.5871 23.9065 27.7811V32.9752C23.9034 33.8597 24.1373 34.7282 24.5828 35.4861C25.0283 36.244 25.6683 36.8623 26.4332 37.2737L26.9385 37.5722V44.4179H23.9065C22.969 44.4179 22.0408 44.6076 21.1752 44.9762C20.3095 45.3447 19.5236 45.8847 18.8625 46.5653C18.2015 47.2459 17.6783 48.0535 17.3231 48.9418C16.9679 49.8301 16.7876 50.7815 16.7928 51.7413V60Z" fill="#0D4373"/>
<path d="M52.3611 48.5573H50.3203V57.9105H52.3611V48.5573Z" fill="#0D4373"/>
<path d="M58.4256 58.0298L56.482 57.8308V47.5223C56.482 45.5906 55.7325 43.738 54.3984 42.3721C53.0643 41.0061 51.2549 40.2387 49.3683 40.2387H46.239V35.2238H48.2798V38.1691H49.2905C51.7151 38.1691 54.0406 39.1539 55.7569 40.9074C57.4731 42.6609 58.4399 45.0399 58.445 47.5223C58.445 57.9104 58.445 57.9502 58.445 58.0298" fill="#0D4373"/>
<path d="M43.7121 42.3283C41.1076 42.3283 39.1445 40.9751 39.1445 39.2039H41.0882C41.0882 39.5024 41.9822 40.2387 43.6343 40.2387C45.2864 40.2387 46.1611 39.5024 46.1611 39.2039H48.2019C48.2019 40.9751 46.2582 42.3283 43.6343 42.3283" fill="#0D4373"/>
<path d="M44.2175 37.1144V35.1244C45.5717 35.1086 46.8648 34.5454 47.8151 33.5576C48.7653 32.5697 49.2957 31.2373 49.2904 29.8507V25.6119C49.2279 24.2606 48.6717 22.9828 47.732 22.0317C46.7924 21.0807 45.5379 20.526 44.2175 20.4776C43.4967 20.4828 42.7838 20.6315 42.1184 20.9154L41.3215 19.0249C42.2333 18.6114 43.2204 18.4011 44.2175 18.4079C46.0802 18.4429 47.8582 19.2107 49.1827 20.552C50.5072 21.8934 51.2766 23.7053 51.3313 25.6119V29.8507C51.3261 31.779 50.5744 33.6265 49.2408 34.9881C47.9073 36.3498 46.1009 37.1144 44.2175 37.1144Z" fill="#0D4373"/>
<path d="M9.679 48.5573H7.63818V57.9105H9.679V48.5573Z" fill="#0D4373"/>
<path d="M3.57607 57.9303H1.55469V47.5224C1.55982 45.0434 2.52392 42.6674 4.23596 40.9145C5.94801 39.1615 8.26857 38.1744 10.6898 38.1691H11.6616V35.2438H13.6052V40.2388H10.6898C8.80647 40.2441 7.00206 41.0138 5.67218 42.3791C4.34231 43.7445 3.5955 45.5941 3.5955 47.5224L3.57607 57.9303Z" fill="#0D4373"/>
<path d="M16.2877 42.3283C13.6055 42.3283 11.6619 40.9751 11.6619 39.2039H13.6055C13.6055 39.5024 14.4996 40.2387 16.1517 40.2387C17.8038 40.2387 18.6784 39.5024 18.6784 39.2039H20.7192C20.7192 40.9751 18.7756 42.3283 16.1517 42.3283" fill="#0D4373"/>
<path d="M15.7826 37.1144C14.8486 37.1197 13.9229 36.9355 13.0588 36.5726C12.1946 36.2097 11.4093 35.6752 10.7479 34.9999C10.0866 34.3246 9.56237 33.5219 9.20555 32.6382C8.84872 31.7544 8.66634 30.8071 8.66892 29.8508V25.6119C8.6439 24.6471 8.81336 23.6872 9.16672 22.7924C9.52009 21.8975 10.0498 21.0868 10.7227 20.4108C11.3957 19.7349 12.1975 19.2082 13.0781 18.8636C13.9587 18.519 14.8992 18.3639 15.8409 18.408C16.7974 18.4085 17.7437 18.6081 18.6224 18.9947C19.5012 19.3812 20.294 19.9467 20.9527 20.6567L19.4367 22.0896C18.9672 21.5798 18.4009 21.1739 17.7725 20.8967C17.1441 20.6194 16.4669 20.4768 15.7826 20.4776C15.1119 20.4442 14.4416 20.5536 13.8142 20.7987C13.1868 21.0439 12.6158 21.4195 12.1374 21.902C11.6589 22.3844 11.2832 22.9632 11.0342 23.6017C10.7851 24.2403 10.668 24.9247 10.6903 25.6119V29.8508C10.7057 31.2214 11.2496 32.5302 12.2035 33.492C13.1574 34.4537 14.4439 34.9904 15.7826 34.9851C16.8473 35.026 17.9006 34.7495 18.8147 34.1891L19.9031 35.9602C18.6591 36.7185 17.2298 37.0981 15.7826 37.0547" fill="#0D4373"/>
<path d="M29.9908 15.2835C23.8289 15.2905 17.7083 14.255 11.8761 12.2189C11.5356 12.0972 11.2396 11.8719 11.0277 11.5731C10.8158 11.2744 10.6981 10.9164 10.6905 10.5472V2.58702C10.6774 2.35114 10.7106 2.11497 10.788 1.8924C10.8654 1.66984 10.9855 1.46538 11.1413 1.29106C11.2971 1.11675 11.4853 0.976104 11.695 0.877408C11.9046 0.778712 12.1314 0.723961 12.3621 0.716377C12.5098 0.688291 12.6613 0.688291 12.8091 0.716377C18.4418 2.05853 24.2076 2.72635 29.9908 2.70643C35.774 2.72635 41.5399 2.05853 47.1726 0.716377C47.327 0.690739 47.4845 0.690739 47.639 0.716377C48.0858 0.73195 48.509 0.926037 48.8177 1.25708C49.1265 1.58812 49.2965 2.02979 49.2911 2.48752V10.5472C49.2823 10.9133 49.1665 11.2683 48.9586 11.5663C48.7507 11.8643 48.4603 12.0916 48.1249 12.2189C42.2861 14.255 36.159 15.2905 29.9908 15.2835ZM12.7313 10.3283C18.2969 12.226 24.1247 13.1936 29.9908 13.194C35.8628 13.1872 41.6959 12.2198 47.2697 10.3283V2.90543C41.6019 4.23407 35.8053 4.90166 29.9908 4.89548C24.183 4.89644 18.3935 4.2289 12.7313 2.90543V10.3283Z" fill="#0D4373"/>
<path d="M46.239 16.3184C45.7236 16.3184 45.2292 16.1087 44.8647 15.7355C44.5002 15.3623 44.2954 14.8562 44.2954 14.3284V12.1393H46.239V14.2488C50.1033 14.0088 53.8017 12.5566 56.8318 10.0896L53.6637 7.42289L55.5102 3.44279C53.1651 4.21638 50.7375 4.69747 48.2799 4.87562V2.88557C51.2838 2.55686 54.2431 1.88947 57.104 0.895522L59.3586 0L56.171 6.84577L60.0583 10.0299L59.1836 10.8458C55.5864 14.0983 51.0296 16.0248 46.239 16.3184Z" fill="#0D4373"/>
<path d="M13.7415 16.3184C8.97604 16.0164 4.44645 14.0898 0.874636 10.8458L0 9.95025L3.88727 6.76617L0.621963 0L2.89602 0.776119C5.73654 1.77933 8.6761 2.46003 11.6618 2.80597V4.79602C9.20419 4.61786 6.77654 4.13678 4.43149 3.36318L6.27794 7.34328L3.16812 10.0697C6.18541 12.5492 9.87964 14.0093 13.7415 14.2488V12.1393H15.6851V14.2488C15.6851 14.7765 15.4804 15.2827 15.1159 15.6559C14.7514 16.0291 14.257 16.2388 13.7415 16.2388" fill="#0D4373"/>
<path d="M42.5853 8.07963L42.2549 6.08958L43.7709 5.81097L44.1596 7.80102L42.5853 8.07963Z" fill="#0D4373"/>
<path d="M29.9899 9.03482V7.04477C33.2371 7.03323 36.4813 6.84058 39.708 6.46765L39.9413 8.4577C36.6107 8.83357 33.2628 9.02622 29.9121 9.03482" fill="#0D4373"/>
</g>
<defs>
<clipPath id="clip0_92_1773">
<rect width="60" height="60" fill="white"/>
</clipPath>
</defs>
</svg>
