<svg width="29" height="23" viewBox="0 0 29 23" fill="none" xmlns="http://www.w3.org/2000/svg">
<path d="M29 6.624V18.3281C29.0001 19.5214 28.5395 20.6696 27.7129 21.537C26.8862 22.4043 25.7561 22.9253 24.5543 22.9928L24.2875 23H4.7125C3.5088 23.0001 2.3507 22.5435 1.47577 21.724C0.600832 20.9044 0.0753981 19.784 0.00725017 18.5926L0 18.3281V6.624L13.9954 13.892C14.1511 13.9728 14.3242 14.0151 14.5 14.0151C14.6758 14.0151 14.8489 13.9728 15.0046 13.892L29 6.624ZM4.7125 3.39323e-08H24.2875C25.4556 -0.000139459 26.5821 0.429806 27.4486 1.20645C28.315 1.98309 28.8596 3.05107 28.9768 4.20325L14.5 11.7214L0.0232 4.20325C0.135609 3.09682 0.642422 2.06643 1.45254 1.29729C2.26265 0.52815 3.32294 0.0707063 4.4428 0.0071877L4.7125 3.39323e-08H24.2875H4.7125Z" fill="#FEA803"/>
</svg>
