<svg width="28" height="28" viewBox="0 0 28 28" fill="none" xmlns="http://www.w3.org/2000/svg">
<path d="M27.6109 23.283L23.6632 27.199C23.0805 27.7966 22.3081 27.9991 21.5559 28C18.2292 27.9003 15.0848 26.2662 12.503 24.5883C8.26514 21.5053 4.37673 17.6825 1.9363 13.0627C1.0003 11.1255 -0.0979491 8.65382 0.00698087 6.49154C0.0163375 5.67814 0.235531 4.87984 0.808387 4.35554L4.75606 0.409847C5.57581 -0.287423 6.36856 -0.0463433 6.89314 0.765843L10.0691 6.78822C10.4033 7.50169 10.2116 8.26613 9.71285 8.77594L8.25844 10.2296C8.16865 10.3526 8.11149 10.4926 8.11004 10.645C8.66775 12.8038 10.3573 14.7936 11.8499 16.163C13.3425 17.5324 14.9468 19.3876 17.0294 19.8268C17.2868 19.8986 17.6021 19.9238 17.7863 19.7526L19.4782 18.032C20.0614 17.5899 20.9035 17.3738 21.5262 17.7353H21.5558L27.2844 21.1173C28.1254 21.6444 28.2131 22.6632 27.6109 23.283Z" fill="#FEA803"/>
</svg>
