<svg width="80" height="76" viewBox="0 0 80 76" fill="none" xmlns="http://www.w3.org/2000/svg">
<g clip-path="url(#clip0_14_416)">
<path d="M25.124 57.1773C25.124 57.1773 25.345 55.6768 22.2918 53.4488C19.2378 51.22 17.2627 48.5564 17.0864 45.7675C16.9097 42.9795 17.0248 40.35 17.3996 38.7874C17.774 37.2247 18.4404 35.9138 18.3504 35.5775C18.261 35.2416 18.1231 33.9129 17.8899 32.9646C17.6567 32.0163 17.8856 30.8352 17.9159 30.4276C17.9466 30.0205 18.6491 29.5367 18.9094 29.5656C19.1693 29.5953 19.2516 28.7975 19.198 28.6279C19.1437 28.4587 19.0088 28.4553 18.6867 28.747C18.365 29.0389 16.5948 29.4969 16.5948 29.4969L16.9064 28.0503L14.9515 28.9405L14.7275 28.747L15.3423 27.1207L13.8307 28.3188L13.4081 27.1207L13.6605 26.153L14.42 25.4329L12.7608 26.026L11.8308 25.9383C11.8308 25.9383 11.0054 25.9889 10.5002 26.4895C9.99465 26.9902 9.92577 27.7716 9.45259 28.0456C8.97926 28.3193 6.94227 28.2783 6.66926 28.0876C6.39593 27.8972 5.39815 26.6774 5.25069 26.0262C5.10291 25.3753 5.09529 25.2797 5.01894 24.705C4.94291 24.1306 5.18037 24.0873 5.35688 24.0439C5.5337 23.9999 6.98053 23.9481 7.19227 23.8793C7.40402 23.8111 7.41132 24.2259 7.68831 24.1965C7.96529 24.1667 9.8545 23.8992 10.1697 23.6253C10.4848 23.3507 11.4207 21.6398 11.6653 20.3575C11.9097 19.0752 12.205 16.2182 11.9054 15.7409C11.6058 15.2634 10.8978 13.5838 10.1894 12.9019C9.48132 12.2205 6.73815 9.73364 6.58085 9.21003C6.42355 8.68658 7.08307 7.93497 7.35688 8.03227C7.63085 8.12973 6.42989 7.97402 6.08148 8.15829C5.73307 8.3424 4.99259 8.92571 5.01894 9.07949C5.04513 9.23245 5.15196 8.84148 4.47783 8.90409C3.80386 8.9667 2.93624 10.1582 2.89355 10.3058C2.85069 10.4538 2.46323 10.4615 2.33482 10.1812C2.20656 9.90048 2.43291 9.04415 2.30243 8.02372C2.17148 7.00328 2.11323 6.67702 2.62545 6.03174C3.13751 5.38663 5.18577 4.06591 5.9145 3.80499C6.64338 3.54439 5.11434 3.53245 4.64767 3.5168C4.18085 3.50099 2.75021 3.0458 2.7045 3.24637C2.65863 3.4471 2.62116 2.71824 2.97767 2.48007C3.33418 2.24191 5.46386 1.39477 6.58085 1.78268C7.69767 2.1701 7.66164 1.91015 8.2637 2.0444C8.8664 2.17833 10.2293 3.13664 10.2942 3.21522C10.3596 3.29397 9.58751 2.69855 9.5718 2.53526C9.55561 2.37196 13.3756 1.68974 14.172 1.6828C14.9683 1.67538 24.0766 4.59081 24.2851 4.67552C24.4935 4.7604 27.0667 6.8537 27.5388 6.89227C28.0105 6.93083 27.7318 7.47477 28.5043 7.65533C29.2769 7.83589 31.5137 7.80443 32.1816 7.80362C32.8497 7.80346 35.601 8.06567 35.7732 8.22735C35.9458 8.38871 36.778 9.11918 36.1223 9.84401C35.4669 10.5685 35.3924 11.4678 34.4915 11.7298C33.5902 11.9915 32.7853 12.2534 32.528 12.2858C32.2702 12.3188 32.1742 13.3085 33.3054 13.7415C34.4372 14.1744 36.1912 16.739 36.9548 17.423C37.7185 18.1065 38.7678 19.6014 39.1659 19.6478C39.5631 19.6945 41.1732 19.6641 41.3289 19.2883C41.4848 18.912 41.1523 55.6081 41.1523 55.6081L25.124 57.1773Z" fill="#F39200"/>
<path d="M22.2345 73.0959C22.2345 74.0004 22.2345 74.7453 22.2808 75.1408C22.3084 75.4143 22.3642 75.6216 22.6424 75.6594C22.7724 75.6781 22.9761 75.697 23.0599 75.697C23.1148 75.697 23.1335 75.7252 23.1335 75.7541C23.1335 75.8007 23.0872 75.8288 22.985 75.8288C22.4753 75.8288 21.8913 75.8007 21.8446 75.8007C21.7984 75.8007 21.214 75.8288 20.9364 75.8288C20.8345 75.8288 20.788 75.8101 20.788 75.7541C20.788 75.7252 20.8067 75.697 20.8619 75.697C20.9457 75.697 21.057 75.6781 21.1403 75.6594C21.3253 75.6218 21.3721 75.4143 21.4091 75.1408C21.4549 74.7453 21.4549 74.0006 21.4549 73.0959V69.1093L20.0835 69.1285C19.5084 69.1377 19.2857 69.2036 19.1375 69.4298C19.0359 69.59 19.0078 69.656 18.9799 69.722C18.9519 69.7972 18.9246 69.8166 18.8872 69.8166C18.8599 69.8166 18.8408 69.7878 18.8408 69.7314C18.8408 69.6373 19.0262 68.8268 19.0451 68.7518C19.0637 68.695 19.1011 68.5728 19.1376 68.5728C19.2026 68.5728 19.2957 68.6667 19.5456 68.6856C19.8143 68.7138 20.1669 68.7326 20.2783 68.7326H23.7551C24.3484 68.7326 24.5983 68.638 24.6724 68.638C24.7191 68.638 24.7191 68.6951 24.7191 68.7518C24.7191 69.0341 24.6907 69.6849 24.6907 69.788C24.6907 69.8727 24.6635 69.9103 24.6257 69.9103C24.5794 69.9103 24.5608 69.8826 24.5521 69.7506L24.5429 69.6467C24.5056 69.3641 24.2923 69.1476 23.4023 69.1287L22.2343 69.1095V73.0959H22.2345Z" fill="black"/>
<path d="M26.6657 71.4374C26.6473 69.9673 26.6657 69.7031 26.6473 69.4015C26.6286 69.0814 26.5543 68.9304 26.2484 68.8644C26.1743 68.8457 26.0164 68.8363 25.9333 68.8363C25.896 68.8363 25.8594 68.8173 25.8594 68.7797C25.8594 68.7232 25.9056 68.7038 26.0076 68.7038C26.4246 68.7038 27.0089 68.7324 27.0549 68.7324C27.1013 68.7324 27.6856 68.7038 27.9635 68.7038C28.0656 68.7038 28.1119 68.7232 28.1119 68.7797C28.1119 68.8171 28.0748 68.8363 28.0375 68.8363C27.9726 68.8363 27.9172 68.8457 27.8059 68.8644C27.5559 68.9115 27.4814 69.0722 27.4629 69.4015C27.4445 69.7031 27.4445 71.1639 27.4445 74.2739C27.4445 74.3495 27.4908 74.3587 27.5278 74.3115C28.8448 72.7565 30.1424 71.1829 32.0429 68.6854C32.1632 68.4871 32.3114 68.5249 32.2652 68.8363V71.4374V73.0959C32.2652 74.0004 32.2652 74.7453 32.3114 75.1408C32.3395 75.4143 32.3951 75.6216 32.6738 75.6594C32.8035 75.6781 33.007 75.697 33.0908 75.697C33.146 75.697 33.1645 75.7252 33.1645 75.7536C33.1645 75.8007 33.1181 75.8294 33.0162 75.8294C32.5062 75.8294 31.9222 75.8007 31.8759 75.8007C31.8297 75.8007 31.2452 75.8294 30.9676 75.8294C30.8654 75.8294 30.8191 75.8101 30.8191 75.7536C30.8191 75.7252 30.8376 75.697 30.8933 75.697C30.9767 75.697 31.0879 75.6781 31.1714 75.6594C31.3567 75.6218 31.403 75.4143 31.44 75.1408C31.4864 74.7453 31.4864 74.0006 31.4864 73.0959V70.3723C31.4864 70.2593 31.44 70.2025 31.3567 70.3063C30.1332 71.7575 28.9184 73.237 27.7689 74.7641L26.9994 75.7723L26.8881 75.923C26.7675 76.1213 26.6194 76.0834 26.6657 75.7723V71.4374Z" fill="black"/>
<path d="M36.3061 69.1847V73.0959C36.3061 74.0004 36.3154 74.9242 36.3621 75.2351C36.3988 75.4991 36.51 75.631 36.7145 75.6594C36.8442 75.6781 37.0477 75.697 37.1315 75.697C37.1867 75.697 37.2051 75.7252 37.2051 75.7536C37.2051 75.8007 37.1588 75.8288 37.0569 75.8288C36.5472 75.8288 35.9629 75.8007 35.9165 75.8007C35.8704 75.8007 35.3234 75.8288 35.0453 75.8288C34.9432 75.8288 34.897 75.8101 34.897 75.7536C34.897 75.7252 34.915 75.697 34.971 75.697C35.0543 75.697 35.1659 75.6881 35.2492 75.6594C35.3975 75.6122 35.444 75.5275 35.4996 75.2539C35.5459 75.0089 35.5645 74.2457 35.5645 73.0959V71.4374C35.5645 69.854 35.5553 69.4582 35.5367 69.2981C35.5091 69.0717 35.4534 68.9307 35.1475 68.8645C35.0732 68.8455 34.9151 68.8362 34.8323 68.8362C34.795 68.8362 34.7578 68.8171 34.7578 68.7795C34.7578 68.723 34.804 68.7037 34.9064 68.7037C35.3235 68.7037 35.9077 68.7322 35.954 68.7322C36.1392 68.7322 38.1045 68.723 38.2342 68.7135C38.3831 68.7037 38.6053 68.6854 38.6426 68.6759C38.6978 68.6572 38.7353 68.6194 38.7723 68.6194C38.8092 68.6194 38.8275 68.6759 38.8275 68.7232C38.8275 68.789 38.7816 68.9021 38.7538 69.1661C38.7442 69.2604 38.7262 69.6747 38.7075 69.7878C38.6978 69.8351 38.6799 69.8824 38.6331 69.8824C38.5867 69.8824 38.5681 69.8443 38.5681 69.7783C38.5681 69.703 38.5402 69.5429 38.4851 69.4203C38.4296 69.298 38.2069 69.1096 37.6602 69.1096L36.3897 69.0811C36.334 69.0812 36.3061 69.1098 36.3061 69.1847Z" fill="black"/>
<path d="M41.0524 71.4374C41.0524 69.9673 41.0524 69.7031 41.0339 69.4016C41.0156 69.0814 40.9409 68.9304 40.6348 68.8644C40.5604 68.8457 40.4031 68.8363 40.3196 68.8363C40.2826 68.8363 40.2461 68.8173 40.2461 68.7797C40.2461 68.7232 40.2923 68.7039 40.3937 68.7039C40.8113 68.7039 41.3677 68.7324 41.4416 68.7324C41.6459 68.7324 42.1832 68.7039 42.6099 68.7039C43.7688 68.7039 44.1858 69.0998 44.3343 69.241C44.5377 69.4393 44.7975 69.8635 44.7975 70.3626C44.7975 71.7009 43.8336 72.6062 42.517 72.6062C42.4709 72.6062 42.3688 72.6062 42.3226 72.596C42.2758 72.596 42.2201 72.5773 42.2201 72.5302C42.2201 72.4551 42.2758 72.4454 42.4707 72.4454C43.3697 72.4454 44.0745 71.7764 44.0745 70.9093C44.0745 70.5985 44.0469 69.967 43.5551 69.458C43.0642 68.949 42.4988 68.9867 42.2855 68.9867C42.1277 68.9867 41.9702 69.0054 41.8867 69.0432C41.8309 69.0619 41.8124 69.1279 41.8124 69.2221V73.0957C41.8124 74.0003 41.8124 74.7451 41.8588 75.1406C41.8867 75.4141 41.9421 75.6215 42.2201 75.6592C42.3502 75.678 42.5542 75.6968 42.6374 75.6968C42.6931 75.6968 42.7116 75.7251 42.7116 75.7535C42.7116 75.8006 42.6655 75.8293 42.5634 75.8293C42.0534 75.8293 41.4693 75.8006 41.4229 75.8006C41.3951 75.8006 40.8112 75.8293 40.5332 75.8293C40.4307 75.8293 40.3843 75.8099 40.3843 75.7535C40.3843 75.7251 40.4031 75.6968 40.4586 75.6968C40.5418 75.6968 40.6536 75.678 40.737 75.6592C40.9228 75.6216 40.9691 75.4141 41.0061 75.1406C41.0524 74.7451 41.0524 74.0005 41.0524 73.0957V71.4374Z" fill="black"/>
<path d="M47.0038 71.4374C46.9852 69.9673 47.0038 69.7031 46.9852 69.4015C46.9666 69.0814 46.8922 68.9304 46.5865 68.8644C46.512 68.8457 46.3542 68.8363 46.2709 68.8363C46.2344 68.8363 46.1973 68.8173 46.1973 68.7797C46.1973 68.7232 46.2431 68.7038 46.3455 68.7038C46.7627 68.7038 47.3466 68.7324 47.393 68.7324C47.4393 68.7324 48.0236 68.7038 48.3017 68.7038C48.4038 68.7038 48.4501 68.7232 48.4501 68.7797C48.4501 68.8171 48.4127 68.8363 48.3755 68.8363C48.3108 68.8363 48.2555 68.8457 48.1439 68.8644C47.8938 68.9115 47.8196 69.0722 47.8011 69.4015C47.7825 69.7031 47.7825 71.1639 47.7825 74.2739C47.7825 74.3495 47.8289 74.3587 47.8658 74.3115C49.1825 72.7565 50.4804 71.1829 52.3808 68.6854C52.5012 68.4871 52.6496 68.5249 52.6031 68.8363V71.4374V73.0959C52.6031 74.0004 52.6031 74.7453 52.6496 75.1408C52.6773 75.4143 52.7328 75.6216 53.0114 75.6594C53.1409 75.6781 53.3447 75.697 53.4287 75.697C53.4839 75.697 53.5023 75.7252 53.5023 75.7536C53.5023 75.8007 53.456 75.8294 53.3538 75.8294C52.8439 75.8294 52.2598 75.8007 52.2139 75.8007C52.1674 75.8007 51.583 75.8294 51.305 75.8294C51.2031 75.8294 51.1568 75.8101 51.1568 75.7536C51.1568 75.7252 51.1752 75.697 51.2311 75.697C51.3144 75.697 51.4258 75.6781 51.5092 75.6594C51.6944 75.6218 51.7408 75.4143 51.7779 75.1408C51.8241 74.7453 51.8241 74.0006 51.8241 73.0959V70.3723C51.8241 70.2593 51.7779 70.2025 51.6944 70.3063C50.4708 71.7575 49.2562 73.237 48.1065 74.7641L47.3373 75.7723L47.226 75.923C47.1054 76.1213 46.9573 76.0834 47.0038 75.7723V71.4374Z" fill="black"/>
<path d="M54.8457 72.1534C54.8457 70.6456 55.7633 68.572 58.7114 68.572C59.8148 68.572 60.6491 68.8266 61.0016 68.8266C61.1035 68.8266 61.1219 68.8739 61.1219 68.9304C61.1219 69.0342 61.0572 69.4863 61.0572 70.0331C61.0572 70.4857 61.0386 70.6266 60.9648 70.6266C60.8999 70.6266 60.89 70.5608 60.89 70.4288C60.89 69.3265 59.8056 68.9304 58.6467 68.9304C56.2641 68.9304 55.6802 70.4105 55.6802 72.0782C55.6802 73.8783 57.0424 75.5276 59.027 75.5276C59.7222 75.5276 60.2692 75.4428 60.6399 75.0562C60.8346 74.8489 60.9548 74.4343 60.9832 74.2647C61.0016 74.161 61.0202 74.1234 61.0759 74.1234C61.1219 74.1234 61.1408 74.1896 61.1408 74.2647C61.1408 74.3306 61.0295 75.1505 60.9368 75.4712C60.881 75.6499 60.8626 75.6692 60.6959 75.7447C60.3248 75.8954 59.6203 75.9613 59.0268 75.9613C56.199 75.9611 54.8457 74.3304 54.8457 72.1534Z" fill="black"/>
<path d="M54.8705 57.1773C54.8705 57.1773 54.6494 55.6768 57.7029 53.4488C60.7562 51.22 62.7318 48.5564 62.9083 45.7675C63.0848 42.9795 62.9699 40.35 62.5951 38.7874C62.2202 37.2247 61.554 35.9138 61.6442 35.5775C61.7337 35.2416 61.8718 33.9129 62.1048 32.9646C62.3378 32.0163 62.1088 30.8352 62.0788 30.4276C62.0481 30.0205 61.3456 29.5367 61.0853 29.5656C60.8253 29.5953 60.7431 28.7975 60.7969 28.6279C60.8505 28.4587 60.9859 28.4553 61.3081 28.747C61.6299 29.0389 63.4002 29.4969 63.4002 29.4969L63.0883 28.0503L65.0432 28.9405L65.2673 28.747L64.6521 27.1207L66.1639 28.3188L66.5867 27.1207L66.3343 26.153L65.5745 25.4329L67.234 26.026L68.164 25.9383C68.164 25.9383 68.9893 25.9889 69.4943 26.4895C69.9997 26.9902 70.0689 27.7716 70.542 28.0456C71.0153 28.3193 73.0521 28.2783 73.3251 28.0876C73.5988 27.8972 74.5964 26.6774 74.7442 26.0262C74.8918 25.3753 74.8993 25.2797 74.9759 24.705C75.052 24.1306 74.8142 24.0873 74.6378 24.0439C74.4608 23.9999 73.014 23.9481 72.8024 23.8793C72.5908 23.8111 72.5832 24.2259 72.3062 24.1965C72.0294 24.1667 70.1402 23.8992 69.8251 23.6253C69.5099 23.3507 68.5739 21.6398 68.3296 20.3575C68.0851 19.0752 67.7899 16.2182 68.0893 15.7409C68.3891 15.2634 69.097 13.5838 69.8054 12.9019C70.5137 12.2205 73.2567 9.73364 73.4137 9.21003C73.5715 8.68658 72.9118 7.93497 72.6378 8.03227C72.364 8.12973 73.5646 7.97402 73.9132 8.15829C74.2616 8.3424 75.0021 8.92571 74.9758 9.07949C74.9491 9.23245 74.8426 8.84148 75.5162 8.90409C76.1905 8.9667 77.058 10.1582 77.101 10.3058C77.144 10.4538 77.5315 10.4615 77.6597 10.1812C77.788 9.90048 77.5618 9.04415 77.6923 8.02372C77.8231 7.00328 77.881 6.67702 77.3694 6.03174C76.857 5.38663 74.8088 4.06591 74.0799 3.80499C73.3508 3.54439 74.8801 3.53245 75.3469 3.5168C75.8137 3.50099 77.2439 3.0458 77.2901 3.24637C77.3361 3.4471 77.3732 2.71824 77.0169 2.48007C76.6604 2.24191 74.5304 1.39477 73.4134 1.78268C72.2966 2.1701 72.3327 1.91015 71.7302 2.0444C71.128 2.17833 69.7651 3.13664 69.7001 3.21522C69.635 3.29397 70.4067 2.69855 70.4227 2.53526C70.4389 2.37196 66.6188 1.68974 65.8224 1.6828C65.0259 1.67538 55.918 4.59081 55.7093 4.67552C55.5007 4.7604 52.9278 6.8537 52.4559 6.89227C51.9835 6.93083 52.2627 7.47477 51.4902 7.65533C50.7178 7.83589 48.4808 7.80443 47.8131 7.80362C47.145 7.80346 44.3939 8.06567 44.2213 8.22735C44.0485 8.38871 43.2167 9.11918 43.8721 9.84401C44.5277 10.5685 44.6024 11.4678 45.5034 11.7298C46.4045 11.9915 47.2096 12.2534 47.4667 12.2858C47.7243 12.3188 47.8205 13.3085 46.6889 13.7415C45.5575 14.1744 43.8035 16.739 43.04 17.423C42.2761 18.1065 41.2267 19.6014 40.8289 19.6478C40.4316 19.6945 38.8213 19.6641 38.6654 19.2883C38.5099 18.912 38.8426 55.6081 38.8426 55.6081L54.8705 57.1773Z" fill="#F39200"/>
<path d="M33.5772 32.2701C35.2777 28.8119 40.5926 21.6806 40.5926 21.6806C39.4589 21.8249 39.5293 20.1684 39.5293 20.1684C40.8048 20.2402 42.2219 18.9435 43.8046 16.7101C45.3872 14.4772 47.5862 12.9651 47.5862 12.9651C44.6969 12.7392 43.941 11.3386 43.8077 9.6213C43.6747 7.90428 47.6748 7.72372 49.5416 8.08532C51.4086 8.44709 52.4312 6.91063 53.5869 6.14256C54.7421 5.37401 61.8104 2.79824 64.6993 2.21138C67.5886 1.62355 70.6997 2.93427 70.6997 2.93427C70.6997 2.93427 72.8777 1.26227 75.9899 2.39178C79.1012 3.52161 77.5007 6.14256 77.5007 6.14256C78.7654 10.1017 77.3697 11.0674 77.3697 11.0674C77.3697 11.0674 77.3991 13.375 77.0394 13.8047C76.4361 14.525 75.8108 12.1238 75.8108 12.1238C76.8501 14.5731 77.2754 13.6125 77.1337 11.6917C76.9923 9.77039 75.1493 9.48269 75.1493 9.48269C76.85 8.85839 77.1337 10.7792 77.1337 10.7792C77.6059 10.2028 77.7955 9.05025 76.8975 8.76206C76.0001 8.47388 75.3862 9.19451 75.3862 9.19451C75.5748 8.18601 77.4645 8.42595 77.4645 8.42595C76.1418 7.17768 73.6381 7.75357 73.6381 7.75357C75.4805 6.88933 77.3699 7.56155 77.3699 7.56155C76.2362 6.26504 73.0235 6.88933 73.0235 6.88933C75.2916 5.92893 77.3226 6.79333 77.3226 6.79333C77.3226 6.79333 76.5193 5.83292 74.7718 5.11277C73.0235 4.39214 73.2129 3.9121 73.2129 3.9121C73.7327 4.29614 74.7718 4.39231 74.7718 4.39231C75.5274 3.28797 77.3226 3.72008 77.3226 3.72008C77.3226 3.72008 76.657 2.69449 74.7247 2.42324C72.7923 2.15232 70.3312 5.01644 70.3312 5.01644C70.8507 3.9121 72.5986 2.61558 72.5986 2.61558C71.0869 2.66351 69.1031 4.68033 69.1031 4.68033C69.5753 3.672 70.2367 3.19196 70.2367 3.19196C69.0554 2.23091 66.457 2.27947 66.457 2.27947C67.355 2.85536 67.1654 3.33573 67.1654 3.33573C65.9847 2.03889 64.7097 2.47133 64.7097 2.47133C65.8428 3.09563 65.607 3.71992 65.607 3.71992C64.5677 1.79911 62.5837 3.04754 62.7723 3.33573C62.9618 3.62391 64.6148 3.71992 64.6148 3.71992C64.1426 4.584 61.7332 4.87251 61.7332 4.87251C62.1112 4.20029 63.1504 3.96035 63.1504 3.96035C61.4496 3.76817 62.2999 3.14387 62.2999 3.14387C60.9302 3.52823 58.4264 4.44071 58.4264 4.44071C59.025 4.53059 59.3242 4.969 59.3242 4.969C58.0959 4.34438 55.5918 5.54489 55.5918 5.54489C55.4027 7.85023 54.6939 9.72312 53.5602 11.3075C52.427 12.8925 52.6156 13.7571 52.6156 13.7571C52.0015 12.7483 52.6624 11.4518 52.6624 11.4518C51.671 11.3559 50.6789 12.3642 50.6789 12.3642C50.7735 11.2596 52.5208 10.8275 52.5208 10.8275C50.9153 11.1156 46.805 9.19483 45.6716 9.77072C44.5373 10.3474 45.9547 11.5002 45.9547 11.5002C45.7661 11.4522 44.3356 10.6682 45.0575 9.72295C45.7796 8.77723 51.1515 10.6834 52.8518 9.96322C54.5526 9.24259 55.2139 5.73707 55.2139 5.73707C55.2139 5.73707 54.1927 5.81743 52.9466 7.60948C51.6999 9.40201 48.8837 8.52245 48.8837 8.52245C50.7264 9.67503 52.5208 8.90648 52.5208 8.90648C51.7651 10.5391 46.7578 8.52245 45.1513 8.76222C43.5456 9.00281 43.9516 10.5204 45.0573 11.6439C46.1624 12.7676 48.5289 12.0998 48.5289 12.0998C48.5289 12.0998 49.9432 13.8763 43.71 21.9117C36.5121 31.1908 36.5375 35.2883 39.1262 38.906C42.0005 42.9238 41.5848 45.0922 41.5848 45.0922C41.5848 45.0922 41.5139 42.7153 37.9002 38.393C34.2861 34.0705 39.6007 26.7231 39.6007 26.7231C34.9243 32.2699 34.5951 35.0322 38.1127 40.3377C41.6304 45.643 41.0888 49.2707 41.0888 49.2707C39.9348 41.428 35.7285 40.1126 34.7115 35.6557C33.9104 32.1472 38.4302 26.6873 41.1596 23.8419C46.1545 18.6342 47.5388 13.7434 47.5388 13.7434C47.5388 13.7434 46.018 14.2429 44.0648 17.1426C42.112 20.0419 40.1675 20.6002 40.1675 20.6002C40.805 21.3924 41.7264 21.1042 41.7264 21.1042C40.734 22.3291 34.1393 31.2172 31.168 37.5288C28.1969 43.84 29.5381 49.2709 33.6481 50.2789C37.7583 51.2877 38.8212 54.3132 38.8212 54.3132C37.3329 51.8636 30.8813 53.405 29.255 46.821C27.9696 41.6184 31.8764 35.7275 33.5772 32.2701ZM75.4329 4.72809C75.6694 4.96868 77.0888 4.19803 77.3224 4.53624C77.6312 4.98239 77.2267 5.18329 76.8974 5.49664C76.4488 5.92344 77.2753 5.92876 77.2753 5.92876C78.1223 4.88268 77.5115 3.96003 77.5115 3.96003C75.7166 3.43174 75.1962 4.48815 75.4329 4.72809ZM75.6618 5.9286C75.6618 5.9286 73.3129 5.17457 71.2304 6.79962C71.2304 6.79978 72.7804 4.34406 75.6618 5.9286ZM70.4556 7.11959C70.4556 7.11959 70.4556 4.54334 73.0705 4.87138C73.0705 4.87138 70.8669 5.37208 70.4556 7.11959ZM69.4383 7.8336C69.6323 6.23341 68.7842 5.39612 68.7842 5.39612C70.068 5.83873 69.4383 7.8336 69.4383 7.8336ZM68.1793 5.6672C68.954 5.96233 68.4693 7.36518 68.4693 7.36518C68.4694 6.52886 68.1793 5.6672 68.1793 5.6672ZM67.3801 7.11959C67.3801 7.11959 67.7193 6.4059 67.7193 5.66736C67.7193 5.6672 68.1793 6.62713 67.3801 7.11959ZM65.2489 7.36534C66.362 7.29935 67.2829 6.09819 67.2829 6.09819C67.2829 6.09819 66.7989 7.2916 65.1518 8.12889C65.1518 8.12889 63.501 7.48604 63.4808 5.98088C63.481 5.98104 64.1355 7.43231 65.2489 7.36534ZM65.8409 5.28704C65.8409 5.28704 66.1834 4.31243 68.1793 4.33777C68.1793 4.33777 67.5499 5.6672 66.3626 5.76595C65.1764 5.86406 65.1278 4.85428 64.3289 4.84234C64.3291 4.84234 65.0645 4.47476 65.8409 5.28704ZM62.7791 6.39332C62.7791 6.39332 61.8104 5.2609 60.2847 5.98105C58.7588 6.70119 57.8426 6.75395 57.5239 5.66736C57.5239 5.66736 58.202 6.14725 59.0494 5.98105C59.8972 5.81485 61.4953 4.63225 62.682 5.39612C62.682 5.39612 63.4809 4.68921 64.1345 5.05517C64.1347 5.05501 62.9242 5.34739 62.7791 6.39332ZM69.0024 7.05489C69.0024 7.05489 69.8986 10.5168 67.1867 10.4675C67.1867 10.4675 67.5016 9.11383 66.1205 9.92611C64.7405 10.7387 62.5854 13.0771 62.7305 15.9574C62.7305 15.9574 61.7235 15.0215 62.7237 12.6831C62.7237 12.6831 61.4712 9.4338 60.018 8.42418C58.6183 7.45167 58.008 8.49808 57.1846 6.89789C57.1846 6.89789 57.8142 7.51347 58.7831 7.36518C59.752 7.21802 60.7447 7.19349 61.5197 8.76916C62.2945 10.3447 62.5627 11.3285 63.1646 12.0923C63.1646 12.0923 63.9896 11.1077 65.2248 9.90158C66.6783 8.48178 67.7297 9.13819 67.6156 9.95079C67.6156 9.95079 69.2448 10.1659 69.0024 7.05489ZM67.8512 11.9199C67.721 13.0003 66.634 14.4411 66.254 12.8924C65.8734 11.3435 66.5988 10.4431 66.5988 10.4431C66.5988 10.4431 66.1493 12.2093 66.6697 12.8201C67.1899 13.4315 67.8512 11.9199 67.8512 11.9199ZM65.855 18.7632C65.855 18.7632 64.1894 18.619 63.7997 16.314C63.4101 14.0088 64.7918 12.8924 64.7918 12.8924C64.7918 12.8924 64.3315 13.4315 64.1347 15.828C63.9389 18.2241 65.855 18.7632 65.855 18.7632ZM58.9813 19.8079C59.5127 24.7424 57.6558 25.4264 57.1846 25.2463C57.1846 25.2463 58.6627 26.507 60.2567 26.0749C60.2567 26.0749 56.5369 28.0199 54.5878 23.5898C54.5878 23.5898 56.4188 25.6407 57.741 23.8055C59.0635 21.9707 58.6977 16.9562 55.1904 12.0068C55.1902 12.0068 58.4494 14.8732 58.9813 19.8079ZM61.1073 23.1933C61.1073 23.1933 63.5667 19.1583 62.241 18.1507C60.9153 17.1432 60.2567 20.0236 60.2567 20.0236C60.2567 20.0236 59.7964 17.7314 60.115 16.3743C60.434 15.0173 60.3274 11.9084 58.6627 11.4277C56.997 10.9469 55.5796 7.37099 55.7569 6.09803C55.7569 6.09803 57.1448 9.91804 58.8751 10.4429C61.2491 11.1636 61.1896 15.5215 60.8297 18.0788C60.8297 18.0788 61.7096 16.7038 62.7721 16.602C62.7721 16.602 63.977 18.3669 62.3469 22.0049C62.3469 22.0049 66.2835 22.509 67.3801 26.6511C67.3801 26.6513 64.4729 22.5815 61.1073 23.1933ZM65.0748 26.5001C61.7805 23.7199 60.0442 24.8865 60.0442 24.8865C61.9929 22.1849 65.0748 26.5001 65.0748 26.5001ZM75.1024 12.4962C75.5985 12.9642 75.658 11.7159 75.658 11.7159C75.7569 12.2356 75.7624 12.6918 75.5154 12.8177C75.2689 12.9438 74.1812 13.2887 72.4807 16.3745C70.7799 19.4602 72.162 21.3924 72.162 21.3924C71.0635 20.8883 71.24 19.8079 71.2305 18.7634C71.2205 17.7184 69.5932 16.2422 69.5932 16.2422C69.5932 16.2422 69.2605 16.3592 69.1888 17.3944C69.1174 18.4302 70.9216 20.9243 71.7634 21.5009C72.6048 22.0769 72.9054 22.7253 73.0707 23.0852C73.2366 23.4456 73.9688 23.5174 74.3585 23.6976C74.7481 23.878 74.8899 24.6698 74.8899 24.6698C74.4647 24.1655 73.6147 24.8503 71.9139 23.9969C70.2131 23.1438 69.0318 20.0304 68.9732 17.7549C68.914 15.4791 72.1621 12.208 72.1621 12.208C72.1621 12.208 72.0908 12.6042 72.3391 12.8924C72.5872 13.1806 72.6934 12.6402 73.0707 12.007C73.4489 11.3737 73.0707 11.428 73.0707 11.428C71.7481 11.7645 69.6462 14.225 68.7843 16.2422C67.9232 18.259 69.495 22.5992 70.9216 23.6978C71.6562 24.2632 72.3391 24.6699 72.3391 24.6699C70.2839 24.4542 69.5967 24.3398 69.0343 22.9595C68.4694 21.5731 67.5205 18.4216 68.258 15.5761C68.9954 12.7307 73.0378 10.6414 73.0378 9.34489C73.0378 8.04789 70.4558 8.67864 70.4558 8.67864C72.1694 8.01029 73.4596 8.2086 74.642 9.03815C75.7308 9.80267 75.662 11.596 75.662 11.596C75.4566 10.2261 74.9815 9.70634 74.9815 9.70634C74.592 10.8586 73.6496 10.8757 73.6496 10.8757C74.7837 11.1274 74.6064 12.0278 75.1024 12.4962ZM75.8821 21.5727C76.0237 21.9691 74.8193 23.7341 74.8193 23.7341C75.1851 22.9984 75.8821 21.5727 75.3796 21.8967C74.877 22.2212 73.4462 23.0852 73.4462 23.0852C74.1994 22.5449 75.7404 21.1765 75.8821 21.5727ZM74.2873 21.1041C73.9486 21.4026 73.5435 21.969 72.8353 22.1847C72.8353 22.1847 73.5362 21.6914 73.8624 21.2482C74.2162 20.766 74.698 20.492 74.6704 21.1039C74.642 21.7166 74.2837 22.3223 74.2837 22.3223C74.2837 22.3223 74.6712 20.7662 74.2873 21.1041ZM70.0943 27.5399C71.3115 29.0366 74.4881 29.0284 75.0081 24.9943C75.0081 24.9943 75.0097 28.9298 71.9097 28.9326C69.5929 28.9347 70.3745 26.6808 67.6155 26.5002C67.6156 26.5001 68.8093 25.9581 70.0943 27.5399ZM51.5762 51.0232C55.4024 50.4948 58.237 48.9104 59.7018 43.7719C59.7018 43.7719 58.2847 50.9271 53.7491 51.5518C49.2139 52.1758 46.8994 53.4715 46.2854 54.313C46.2854 54.313 47.7493 51.5518 51.5762 51.0232ZM61.5713 48.2328C62.6145 44.1923 62.725 40.8904 61.7802 36.1839C61.7802 36.1839 64.1513 42.4807 62.5862 47.8549C60.5178 54.9567 56.5029 53.2637 54.7408 57.6507C54.9835 53.6958 60.1362 53.7925 61.5713 48.2328ZM52.9934 43.1952C59.9124 39.6208 61.7935 37.6198 62.111 30.9015C62.111 30.9015 63.1502 38.3932 57.3869 41.8508C51.6232 45.3087 45.8597 48.3343 44.2539 51.2635C44.2539 51.2635 46.0748 46.7701 52.9934 43.1952ZM47.1829 38.8253C52.7096 36.5201 59.0874 33.4948 61.8274 30.9015C61.8274 30.9015 58.6626 36.4244 51.1507 40.0737C43.64 43.7242 41.9858 49.6309 41.9858 49.6309C41.9858 49.6309 42.9226 43.8095 50.1591 39.8822C57.3953 35.9541 59.0873 33.3991 59.0873 33.3991C59.0873 33.3991 54.127 37.3845 49.4978 38.8255C44.8677 40.2659 42.6477 43.5801 41.9858 47.6615C41.9858 47.6612 41.6556 41.1306 47.1829 38.8253ZM58.4732 30.9013C58.4732 30.9013 48.6473 34.5035 45.5289 36.8561C42.411 39.209 40.6639 38.3451 40.9469 34.6952C40.9469 34.6952 41.0412 38.9692 43.9705 37.2401C46.8994 35.5113 50.6313 33.0143 58.4732 30.9013ZM50.8678 31.6218C47.5605 33.1106 45.7654 30.7093 44.2539 25.9068C44.2539 25.9068 46.2113 31.7659 49.6953 31.1895C53.1788 30.6136 57.4104 28.4524 60.044 27.7797C60.044 27.7795 54.174 30.1327 50.8678 31.6218ZM43.0723 24.6698C43.0723 24.6698 42.1285 31.8775 44.7262 34.5349C44.7262 34.5351 41.3243 33.894 43.0723 24.6698ZM64.4728 30.6134C64.4728 30.6134 63.5799 30.2767 62.1842 29.9407C60.7881 29.6045 60.8829 28.9324 60.8829 28.9324C60.8829 28.9324 60.444 29.8928 61.561 30.2767C61.561 30.2767 60.3078 30.6134 58.7293 30.2767C57.1504 29.9407 54.3632 30.5652 51.1507 32.5341C51.1507 32.5341 53.8912 30.2291 56.5362 29.8442C59.1821 29.4605 59.304 30.2817 60.5047 30.0369C60.5047 30.0369 59.8434 29.1092 60.9772 28.1559C60.9772 28.1559 61.242 29.5088 63.1648 29.7965C63.1648 29.7965 63.1978 28.9648 62.5599 28.1559C62.5599 28.1559 63.741 29.0765 65.0748 29.2204C65.0748 29.2204 64.3094 28.0198 64.7931 27.3953C64.7931 27.3953 65.5947 28.1634 66.1435 28.5479C66.1435 28.5479 66.9769 27.2996 65.607 25.9064C65.607 25.9064 67.3078 26.8673 66.6932 28.9321C66.6932 28.9321 65.9145 28.8206 65.075 28.1558C65.075 28.1558 65.0677 29.2643 65.9513 29.6025C65.9513 29.6025 65.0872 29.9467 63.4807 28.9829C63.4805 28.9832 64.4728 29.9407 64.4728 30.6134ZM53.5154 27.876C53.5154 27.876 49.9462 28.1561 47.75 25.5707C44.9515 22.2768 48.5591 22.643 50.3542 21.5018C52.7147 20.0005 52.9934 16.3403 52.9934 16.3403C52.9934 16.3403 53.2705 21.0331 49.6954 22.6176C46.1196 24.202 50.7069 27.9478 53.5154 27.876Z" fill="black"/>
<path d="M46.4748 31.9389C44.774 28.4806 39.4596 21.3494 39.4596 21.3494C40.5934 21.4936 40.5228 19.8371 40.5228 19.8371C39.2472 19.9089 37.8299 18.6122 36.2475 16.3789C34.6653 14.146 32.4662 12.6339 32.4662 12.6339C35.3558 12.408 36.1112 11.0074 36.2442 9.29006C36.3777 7.57304 32.3772 7.39248 30.5105 7.75409C28.6432 8.11585 27.621 6.57939 26.4653 5.81133C25.3097 5.04277 18.2421 2.467 15.3529 1.88014C12.4643 1.29231 9.35275 2.60303 9.35275 2.60303C9.35275 2.60303 7.17466 0.931031 4.06291 2.06054C0.951164 3.19038 2.5518 5.81133 2.5518 5.81133C1.28672 9.77043 2.68228 10.7362 2.68228 10.7362C2.68228 10.7362 2.65339 13.0438 3.01291 13.4735C3.6164 14.1938 4.24148 11.7926 4.24148 11.7926C3.20227 14.2418 2.77704 13.2813 2.91878 11.3605C3.06069 9.43916 4.90307 9.15145 4.90307 9.15145C3.20228 8.52716 2.91878 10.448 2.91878 10.448C2.44656 9.8716 2.25736 8.71901 3.15498 8.43082C4.05259 8.14264 4.6664 8.86327 4.6664 8.86327C4.47767 7.85477 2.58815 8.09472 2.58815 8.09472C3.91116 6.84644 6.41481 7.42233 6.41481 7.42233C4.57196 6.55809 2.68228 7.23032 2.68228 7.23032C3.8164 5.9338 7.02878 6.5581 7.02878 6.5581C4.76069 5.59769 2.72989 6.46209 2.72989 6.46209C2.72989 6.46209 3.53307 5.50168 5.28069 4.78153C7.02878 4.06091 6.83958 3.58086 6.83958 3.58086C6.3199 3.9649 5.28069 4.06107 5.28069 4.06107C4.52513 2.95673 2.72989 3.38885 2.72989 3.38885C2.72989 3.38885 3.39577 2.36325 5.32783 2.09201C7.26069 1.82108 9.72148 4.6852 9.72148 4.6852C9.20196 3.58086 7.4537 2.28435 7.4537 2.28435C8.96545 2.33227 10.9496 4.34909 10.9496 4.34909C10.4772 3.34076 9.81545 2.86072 9.81545 2.86072C10.997 1.89967 13.595 1.94824 13.595 1.94824C12.6974 2.52413 12.8866 3.00449 12.8866 3.00449C14.0677 1.70765 15.3432 2.14009 15.3432 2.14009C14.2091 2.76439 14.4453 3.38869 14.4453 3.38869C15.4845 1.46787 17.4685 2.7163 17.2797 3.00449C17.0907 3.29268 15.4374 3.38869 15.4374 3.38869C15.9099 4.25276 18.3193 4.54127 18.3193 4.54127C17.9415 3.86905 16.902 3.62911 16.902 3.62911C18.6028 3.43693 17.7523 2.81263 17.7523 2.81263C19.1221 3.19699 21.6262 4.10948 21.6262 4.10948C21.0274 4.19935 20.7281 4.63777 20.7281 4.63777C21.9569 4.01315 24.4605 5.21365 24.4605 5.21365C24.6496 7.51899 25.3581 9.39188 26.492 10.9763C27.6261 12.5613 27.4367 13.4258 27.4367 13.4258C28.0505 12.417 27.3899 11.1205 27.3899 11.1205C28.3816 11.0247 29.3737 12.033 29.3737 12.033C29.2793 10.9283 27.5313 10.4962 27.5313 10.4962C29.1378 10.7844 33.2475 8.86359 34.381 9.43948C35.515 10.0162 34.0975 11.1689 34.0975 11.1689C34.2867 11.121 35.7175 10.337 34.9955 9.39172C34.2731 8.44599 28.901 10.3521 27.2007 9.63198C25.5002 8.91135 24.8386 5.40583 24.8386 5.40583C24.8386 5.40583 25.8597 5.48619 27.1062 7.27824C28.3526 9.07078 31.1691 8.19121 31.1691 8.19121C29.3264 9.3438 27.5315 8.57524 27.5315 8.57524C28.2875 10.2079 33.2948 8.19121 34.9013 8.43099C36.507 8.67157 36.101 10.1892 34.9956 11.3127C33.8899 12.4364 31.5234 11.7685 31.5234 11.7685C31.5234 11.7685 30.1094 13.5451 36.3428 21.5804C43.541 30.8595 43.515 34.9571 40.9266 38.5747C38.0521 42.5926 38.4678 44.7609 38.4678 44.7609C38.4678 44.7609 38.5385 42.3841 42.1521 38.0618C45.7666 33.7393 40.4521 26.3918 40.4521 26.3918C45.1286 31.9387 45.4575 34.701 41.9401 40.0065C38.4224 45.3118 38.9639 48.9395 38.9639 48.9395C40.1175 41.0968 44.3242 39.7814 45.3413 35.3245C46.1423 31.8159 41.6226 26.356 38.8932 23.5106C33.8982 18.3029 32.5139 13.4121 32.5139 13.4121C32.5139 13.4121 34.0345 13.9117 35.9878 16.8113C37.9407 19.7106 39.8851 20.2689 39.8851 20.2689C39.2474 21.0612 38.3259 20.773 38.3259 20.773C39.3183 21.9979 45.9132 30.886 48.8842 37.1976C51.8558 43.5088 50.5143 48.9396 46.4042 49.9476C42.294 50.9565 41.231 53.9819 41.231 53.9819C42.7199 51.5323 49.1712 53.0738 50.7977 46.4897C52.0829 41.2872 48.1756 35.3963 46.4748 31.9389ZM4.61942 4.39685C4.38307 4.63744 2.96355 3.86679 2.72989 4.205C2.42101 4.65116 2.82545 4.85205 3.15482 5.16541C3.60307 5.5922 2.77704 5.59753 2.77704 5.59753C1.92989 4.55144 2.54037 3.62879 2.54037 3.62879C4.33561 3.1005 4.85577 4.15691 4.61942 4.39685ZM4.39037 5.59736C4.39037 5.59736 6.73894 4.84334 8.8218 6.46838C8.8218 6.46854 7.27196 4.01282 4.39037 5.59736ZM9.59672 6.78836C9.59672 6.78836 9.59672 4.2121 6.98148 4.54014C6.98164 4.54014 9.18513 5.04084 9.59672 6.78836ZM10.614 7.50237C10.4202 5.90217 11.268 5.06488 11.268 5.06488C9.98418 5.50749 10.614 7.50237 10.614 7.50237ZM11.8732 5.33596C11.098 5.63109 11.5826 7.03394 11.5826 7.03394C11.5826 6.19762 11.8732 5.33596 11.8732 5.33596ZM12.6723 6.78836C12.6723 6.78836 12.3331 6.07467 12.3331 5.33613C12.3331 5.33597 11.8732 6.29589 12.6723 6.78836ZM14.8032 7.0341C13.6899 6.96811 12.7691 5.76695 12.7691 5.76695C12.7691 5.76695 13.2532 6.96036 14.9001 7.79765C14.9001 7.79765 16.5515 7.1548 16.5712 5.64965C16.5712 5.64981 15.9167 7.10107 14.8032 7.0341ZM14.2116 4.9558C14.2116 4.9558 13.8691 3.9812 11.8732 4.00653C11.8732 4.00653 12.5026 5.33596 13.6893 5.43472C14.8758 5.53282 14.9243 4.52304 15.7237 4.5111C15.7237 4.5111 14.988 4.14352 14.2116 4.9558ZM17.2732 6.06208C17.2732 6.06208 18.2421 4.92966 19.7678 5.64981C21.2935 6.36995 22.2096 6.42272 22.5283 5.33613C22.5283 5.33613 21.8502 5.81601 21.0026 5.64981C20.1551 5.48361 18.5569 4.30101 17.3702 5.06488C17.3702 5.06488 16.5712 4.35797 15.9172 4.72393C15.9172 4.72377 17.128 5.01615 17.2732 6.06208ZM11.0501 6.72365C11.0501 6.72365 10.1535 10.1856 12.8656 10.1362C12.8656 10.1362 12.551 8.78259 13.9315 9.59487C15.3118 10.4075 17.467 12.7459 17.322 15.6261C17.322 15.6261 18.3285 14.6903 17.3286 12.3518C17.3286 12.3518 18.5815 9.10256 20.0343 8.09294C21.4342 7.12043 22.0443 8.16684 22.8674 6.56665C22.8674 6.56665 22.2378 7.18223 21.2693 7.03394C20.3004 6.88678 19.3075 6.86226 18.5328 8.43793C17.7577 10.0134 17.4894 10.9972 16.8875 11.7611C16.8875 11.7611 16.0631 10.7765 14.8277 9.57034C13.374 8.15055 12.3226 8.80695 12.4367 9.61956C12.4367 9.61956 10.8075 9.83465 11.0501 6.72365ZM12.2015 11.5886C12.3312 12.6691 13.4181 14.1098 13.7982 12.5611C14.1786 11.0122 13.4535 10.1119 13.4535 10.1119C13.4535 10.1119 13.9028 11.8781 13.3826 12.4888C12.8623 13.1002 12.2015 11.5886 12.2015 11.5886ZM14.1975 18.432C14.1975 18.432 15.8628 18.2878 16.252 15.9827C16.6421 13.6776 15.2605 12.5611 15.2605 12.5611C15.2605 12.5611 15.7208 13.1002 15.9172 15.4967C16.1139 17.8929 14.1975 18.432 14.1975 18.432ZM21.071 19.4766C20.5394 24.4112 22.3962 25.0952 22.8672 24.9151C22.8672 24.9151 21.3899 26.1758 19.7958 25.7437C19.7958 25.7437 23.5158 27.6887 25.4643 23.2586C25.4643 23.2586 23.6335 25.3094 22.311 23.4743C20.9885 21.6395 21.354 16.6249 24.8618 11.6756C24.862 11.6756 21.6028 14.542 21.071 19.4766ZM18.9451 22.8621C18.9451 22.8621 16.4858 18.827 17.8113 17.8195C19.1374 16.812 19.7958 19.6924 19.7958 19.6924C19.7958 19.6924 20.2559 17.4001 19.9372 16.0431C19.6188 14.6861 19.725 11.5772 21.3899 11.0965C23.055 10.6156 24.4724 7.03975 24.2955 5.76679C24.2955 5.76679 22.9075 9.5868 21.1774 10.1117C18.8031 10.8323 18.8626 15.1903 19.2224 17.7475C19.2224 17.7475 18.3423 16.3726 17.2797 16.2708C17.2797 16.2708 16.075 18.0357 17.7051 21.6737C17.7051 21.6737 13.7688 22.1778 12.6723 26.3199C12.6723 26.32 15.5793 22.2502 18.9451 22.8621ZM14.977 26.1688C18.2716 23.3886 20.0085 24.5553 20.0085 24.5553C18.0593 21.8536 14.977 26.1688 14.977 26.1688ZM4.95005 12.165C4.4537 12.6329 4.39418 11.3847 4.39418 11.3847C4.29513 11.9044 4.28958 12.3606 4.53656 12.4864C4.7837 12.6126 5.87069 12.9574 7.57212 16.0433C9.27259 19.1289 7.89053 21.0612 7.89053 21.0612C8.9891 20.5571 8.81228 19.4766 8.8218 18.4322C8.8318 17.3872 10.4596 15.9109 10.4596 15.9109C10.4596 15.9109 10.7916 16.0279 10.8635 17.0632C10.9353 18.099 9.13069 20.5931 8.28926 21.1696C7.44736 21.7457 7.14656 22.394 6.98164 22.754C6.81608 23.1143 6.0837 23.1861 5.69418 23.3664C5.30418 23.5468 5.16291 24.3385 5.16291 24.3385C5.58783 23.8343 6.43831 24.5191 8.13878 23.6657C9.83958 22.8126 11.0207 19.6992 11.0801 17.4237C11.1386 15.1479 7.89053 11.8768 7.89053 11.8768C7.89053 11.8768 7.9618 12.2729 7.7137 12.5611C7.46561 12.8493 7.35958 12.3089 6.9818 11.6757C6.60355 11.0424 6.9818 11.0968 6.9818 11.0968C8.30434 11.4332 10.4064 13.8938 11.2681 15.9109C12.1296 17.9278 10.5577 22.268 9.13085 23.3665C8.39672 23.9319 7.71386 24.3387 7.71386 24.3387C9.76863 24.123 10.4555 24.0086 11.0183 22.6283C11.5835 21.2419 12.532 18.0904 11.7943 15.2448C11.0574 12.3994 7.0145 10.3102 7.0145 9.01365C7.0145 7.71665 9.59704 8.3474 9.59704 8.3474C7.88339 7.67905 6.59307 7.87737 5.41053 8.70691C4.32212 9.47143 4.39053 11.2648 4.39053 11.2648C4.59593 9.89483 5.07085 9.3751 5.07085 9.3751C5.46085 10.5274 6.40275 10.5445 6.40275 10.5445C5.26894 10.7962 5.44577 11.6966 4.95005 12.165ZM4.17021 21.2414C4.02878 21.6379 5.23354 23.4028 5.23354 23.4028C4.86767 22.6672 4.17021 21.2414 4.67259 21.5654C5.17529 21.8899 6.60624 22.754 6.60624 22.754C5.85307 22.2136 4.31212 20.8453 4.17021 21.2414ZM5.76497 20.7728C6.1037 21.0714 6.50894 21.6377 7.21767 21.8535C7.21767 21.8535 6.51561 21.3602 6.18974 20.9169C5.83593 20.4348 5.35418 20.1608 5.38259 20.7727C5.41021 21.3854 5.76878 21.9911 5.76878 21.9911C5.76878 21.9911 5.38101 20.435 5.76497 20.7728ZM9.95751 27.2086C8.74053 28.7054 5.56402 28.6972 5.04386 24.663C5.04386 24.663 5.04228 28.5986 8.14212 28.6013C10.4594 28.6034 9.67752 26.3496 12.4366 26.169C12.4367 26.1688 11.2431 25.6268 9.95751 27.2086ZM28.4761 50.692C24.6499 50.1635 21.8155 48.5792 20.3507 43.4407C20.3507 43.4407 21.7677 50.5958 26.3031 51.2206C30.8383 51.8446 33.1531 53.1403 33.767 53.9818C33.767 53.9818 32.3028 51.2206 28.4761 50.692ZM18.481 47.9016C17.438 43.861 17.3275 40.5591 18.2723 35.8526C18.2723 35.8526 15.9012 42.1495 17.4666 47.5237C19.5345 54.6254 23.5496 52.9325 25.3112 57.3195C25.0688 53.3646 19.9162 53.4612 18.481 47.9016ZM27.0588 42.864C20.1399 39.2896 18.2589 37.2886 17.9415 30.5702C17.9415 30.5702 16.902 38.062 22.6656 41.5196C28.4293 44.9775 34.1923 48.0031 35.7985 50.9322C35.7985 50.9322 33.9774 46.4389 27.0588 42.864ZM32.8697 38.4941C27.3423 36.1889 20.9647 33.1636 18.2245 30.5702C18.2245 30.5702 21.3899 36.0932 28.9013 39.7425C36.4128 43.3929 38.0659 49.2996 38.0659 49.2996C38.0659 49.2996 37.1296 43.4783 29.8929 39.551C22.6566 35.6229 20.9643 33.0679 20.9643 33.0679C20.9643 33.0679 25.925 37.0533 30.5543 38.4942C35.184 39.9347 37.4045 43.2488 38.0658 47.3302C38.0661 47.3299 38.3969 40.7994 32.8697 38.4941ZM21.5788 30.5701C21.5788 30.5701 31.4051 34.1722 34.5234 36.5248C37.641 38.8778 39.3889 38.0139 39.1053 34.3639C39.1053 34.3639 39.0104 38.638 36.0818 36.9089C33.1532 35.1801 29.4209 32.6831 21.5788 30.5701ZM29.1845 31.2905C32.4915 32.7794 34.2869 30.378 35.7985 25.5755C35.7985 25.5755 33.8408 31.4346 30.3572 30.8582C26.8731 30.2824 22.6418 28.1211 20.0085 27.4484C20.0085 27.4483 25.8781 29.8015 29.1845 31.2905ZM36.9797 24.3385C36.9797 24.3385 37.9242 31.5463 35.3262 34.2037C35.3262 34.2039 38.7278 33.5628 36.9797 24.3385ZM15.5796 30.2822C15.5796 30.2822 16.4726 29.9454 17.8686 29.6095C19.2642 29.2732 19.1693 28.6012 19.1693 28.6012C19.1693 28.6012 19.6081 29.5616 18.4915 29.9454C18.4915 29.9454 19.7442 30.2822 21.3229 29.9454C22.9016 29.6095 25.6888 30.2339 28.9013 32.2029C28.9013 32.2029 26.1616 29.8978 23.5158 29.513C20.8701 29.1293 20.7486 29.9504 19.5475 29.7057C19.5475 29.7057 20.2088 28.778 19.075 27.8247C19.075 27.8247 18.8101 29.1775 16.8874 29.4652C16.8874 29.4652 16.8547 28.6336 17.4926 27.8247C17.4926 27.8247 16.3118 28.7453 14.977 28.8892C14.977 28.8892 15.7429 27.6885 15.2593 27.0641C15.2593 27.0641 14.4581 27.8321 13.9086 28.2166C13.9086 28.2166 13.0756 26.9684 14.4455 25.5752C14.4455 25.5752 12.7447 26.5361 13.3591 28.6008C13.3591 28.6008 14.1385 28.4893 14.977 27.8245C14.977 27.8245 14.9848 28.9331 14.1008 29.2713C14.1008 29.2713 14.9653 29.6155 16.5713 28.6517C16.5713 28.652 15.5796 29.6095 15.5796 30.2822ZM26.5366 27.5447C26.5366 27.5447 30.1061 27.8249 32.3023 25.2394C35.1008 21.9456 31.4935 22.3117 29.6983 21.1706C27.3378 19.6693 27.0589 16.009 27.0589 16.009C27.0589 16.009 26.7823 20.7018 30.3574 22.2864C33.9326 23.8708 29.3456 27.6165 26.5366 27.5447Z" fill="black"/>
<path d="M55.3393 40.1022C53.3168 29.721 54.7142 24.036 54.7142 24.036C47.7519 22.6198 43.232 19.673 40.068 16.0189C36.9042 19.673 32.3844 22.6196 25.4226 24.036C25.4226 24.036 26.8196 29.721 24.7973 40.1022C23.553 46.4897 26.2203 49.993 31.7646 53.3449C39.6014 58.0829 39.5988 60.4984 40.0682 61.6865C40.5377 60.4984 40.5357 58.0829 48.3722 53.3449C53.9163 49.993 56.5834 46.4897 55.3393 40.1022Z" fill="white"/>
<path d="M40.0551 57.6225C38.373 55.9192 36.0065 54.1546 32.8362 52.2381C27.3694 48.9327 25.9883 46.4573 26.9262 41.6427C28.2854 34.6652 28.307 29.4351 28.0659 26.1969C32.813 24.8292 36.7405 22.7376 40.0551 19.8115C43.37 22.7376 47.2973 24.8294 52.0443 26.1969C51.8034 29.4351 51.8257 34.6652 53.1843 41.6427C54.1221 46.4573 52.7411 48.9327 47.2745 52.2381C44.1038 54.1546 41.7373 55.9194 40.0551 57.6225ZM40.0551 19.3268C36.6832 22.3716 32.5964 24.5511 27.6856 25.9267C27.9443 29.0693 27.975 34.3838 26.5746 41.5717C25.6108 46.5186 27.0881 49.186 32.653 52.551C36.2656 54.7347 38.5562 56.5619 40.0551 58.1415C41.5542 56.5619 43.8453 54.7347 47.4573 52.551C53.0227 49.186 54.4997 46.5186 53.5359 41.5717C52.1356 34.3836 52.1662 29.0693 52.4249 25.9267C47.5143 24.5511 43.4273 22.3716 40.0551 19.3268Z" fill="black"/>
<path d="M40.0546 59.2188C38.6346 57.5635 36.3027 55.605 32.2866 53.1769C26.465 49.6572 24.8461 46.693 25.8713 41.4303C27.3562 33.8076 27.2173 28.3483 26.9185 25.3816C32.2154 23.984 36.5483 21.6631 40.0546 18.3416C43.5616 21.6631 47.8946 23.984 53.1912 25.3816C52.8927 28.3483 52.7535 33.8076 54.2383 41.4303C55.2634 46.693 53.645 49.6572 47.8231 53.1769C43.8066 55.6049 41.475 57.5635 40.0546 59.2188ZM40.0546 14.6872C36.6066 18.6695 31.6802 21.8809 24.0924 23.4246C24.0924 23.4246 25.6151 29.6205 23.4112 40.9353C22.0553 47.8965 24.962 51.7148 31.0045 55.3682C39.5458 60.5325 39.5434 63.1652 40.0546 64.4593C40.5667 63.1652 40.5639 60.5325 49.1053 55.3682C55.1475 51.7147 58.0546 47.8963 56.6983 40.9353C54.4942 29.6206 56.0175 23.4246 56.0175 23.4246C48.4296 21.8809 43.5031 18.6695 40.0546 14.6872Z" fill="black"/>
<path d="M40.899 39.3168C40.899 41.1263 40.899 42.6152 40.9919 43.407C41.0473 43.9535 41.1587 44.3685 41.7152 44.4434C41.9747 44.4815 42.3826 44.5195 42.5488 44.5195C42.6607 44.5195 42.6977 44.5754 42.6977 44.6322C42.6977 44.7266 42.605 44.783 42.4014 44.783C41.3814 44.783 40.2131 44.7266 40.1212 44.7266C40.0285 44.7266 38.8598 44.783 38.3036 44.783C38.0996 44.783 38.0069 44.7453 38.0069 44.6322C38.0069 44.5752 38.0442 44.5195 38.1555 44.5195C38.3225 44.5195 38.5447 44.4816 38.7115 44.4434C39.0823 44.3685 39.1753 43.9535 39.2492 43.407C39.3419 42.6153 39.3419 41.1263 39.3419 39.3168V31.3435L36.598 31.3815C35.448 31.3998 35.0033 31.5318 34.7065 31.9847C34.5025 32.3048 34.4469 32.437 34.3912 32.5683C34.3355 32.7197 34.2799 32.7575 34.2058 32.7575C34.1503 32.7575 34.1133 32.7007 34.1133 32.5875C34.1133 32.3994 34.4839 30.7777 34.5209 30.6272C34.558 30.5142 34.6322 30.2691 34.7063 30.2691C34.836 30.2691 35.022 30.4574 35.5226 30.4952C36.0598 30.552 36.7644 30.5894 36.9873 30.5894H43.9403C45.1269 30.5894 45.6273 30.401 45.7757 30.401C45.8684 30.401 45.8684 30.5141 45.8684 30.627C45.8684 31.1929 45.8123 32.4931 45.8123 32.7006C45.8123 32.8704 45.7571 32.9456 45.6826 32.9456C45.5904 32.9456 45.553 32.8891 45.5344 32.6251L45.516 32.4183C45.4415 31.8527 45.0157 31.4191 43.2355 31.3815L40.899 31.3435V39.3168Z" fill="black"/>
<path d="M15.5508 50.064C13.9273 49.1475 14.2427 48.1204 14.2427 48.1204C13.1636 48.4322 13.515 49.1571 13.515 49.1571C12.4376 48.2894 12.962 47.3464 12.962 47.3464C12.1209 47.7699 12.0385 48.2777 12.0754 48.7145C12.2427 50.7046 16.8387 51.3116 18.9449 51.3931C17.4871 50.7635 15.6941 50.1448 15.5508 50.064Z" fill="black"/>
<path d="M24.4086 55.9C23.2349 55.6897 22.0411 55.6397 21.1889 55.926C20.1227 56.2843 20.1242 55.5681 20.1242 55.5681C18.9326 55.3202 19.2691 54.4534 19.2691 54.4534C18.1083 55.5155 16.918 53.6619 16.918 53.6619L18.2269 53.3959C21.7453 52.6538 24.4086 55.9 24.4086 55.9ZM22.6007 55.0015C19.8299 53.4941 18.6278 53.9003 18.6278 53.9003C18.7464 54.0326 18.9553 54.0103 18.9553 54.0103C20.8003 54.1003 22.6007 55.0015 22.6007 55.0015Z" fill="black"/>
<path d="M13.8067 52.8773C14.3998 52.8597 16.1506 51.8086 19.2761 52.2719C18.1694 51.8294 16.4318 51.6001 14.6909 52.1274C14.1129 52.3024 13.0031 52.4882 12.3301 52.2928C12.3301 52.2928 12.7179 53.9308 14.2183 53.8641L15.2852 53.3145C15.8777 52.9591 16.8636 52.7375 17.6474 52.7146C18.8972 52.677 20.3152 52.9021 20.7661 53.0804C17.7002 51.6001 15.3236 52.9528 13.8067 52.8773Z" fill="black"/>
<path d="M10.0867 39.3961C10.5558 38.8126 10.5211 37.963 10.0048 37.423C9.63797 37.0383 9.24194 36.7863 9.24194 36.7863C8.85004 37.6068 8.9321 38.5977 8.9321 38.5977C8.33258 38.0411 7.84766 38.4187 7.84766 38.4187C8.51289 38.7878 8.8402 39.7428 8.20639 41.8889C7.79305 43.2892 8.08242 44.0976 8.08242 44.0976C8.06718 42.9671 8.61829 41.7261 9.01051 40.9885C9.79925 39.3248 9.55623 38.1486 9.55623 38.1486C9.79591 38.6433 9.74432 39.3824 9.63813 39.9844C9.79083 39.7741 9.9421 39.5765 10.0867 39.3961Z" fill="black"/>
<path d="M11.3225 46.2982C12.9592 45.4183 13.989 46.6486 13.989 46.6486C14.4484 46.152 14.2517 45.4201 14.0273 45.3376C14.7944 45.3278 15.1489 44.2125 15.1489 44.2125C14.7748 44.0382 14.5206 43.9932 14.1679 44.0256C15.0419 43.715 15.2941 43.0069 15.3151 42.3417V42.3413C15.3386 41.5846 15.2186 41.2168 15.0633 40.8825C14.819 40.3547 14.4878 40.3413 14.3375 40.5091C14.2324 40.6263 14.3324 40.8725 14.5379 40.939C14.7619 41.0114 14.827 41.1844 14.8816 41.3687C15.0779 42.0341 14.5489 42.8483 14.0394 43.0683C14.0394 43.0683 14.7729 42.3116 14.5287 41.4863C14.4238 41.7322 14.1148 41.9244 13.6498 41.9731C12.3714 42.1062 11.91 42.8877 11.91 42.8877C12.2819 42.3417 12.0767 41.5586 12.0767 41.5586C9.25048 42.1972 8.13064 43.4602 8.69238 47.4475C8.71016 46.0119 8.98857 44.7044 10.0924 43.2658C10.0924 43.2658 8.6908 45.6742 9.04683 48.224C9.15508 48.3976 9.27667 48.563 9.41381 48.7224C8.89445 46.3893 10.1133 43.8565 11.7092 43.0931C11.7092 43.0931 10.1313 44.1839 9.75762 46.4807C9.29492 49.3248 10.6778 50.5845 13.4352 51.253L13.5678 51.0929C9.74508 50.1043 9.81397 47.1087 11.3225 46.2982Z" fill="black"/>
<path d="M16.5765 35.0647C16.25 36.9199 15.0337 38.4102 12.9535 39.3215C12.6806 39.4338 12.3729 39.5626 12.0186 39.7152C11.8154 39.8025 11.6241 39.9074 11.4435 40.0238L11.4427 40.0234C11.4427 40.0234 9.19271 41.1421 8.6416 44.2289C8.74493 40.9614 11.4419 38.6122 12.0756 37.8548C12.8033 36.9841 11.8826 36.0797 11.8826 36.0797C12.5392 36.0609 12.9187 36.4547 12.9187 36.4547C12.6608 35.7847 13.5848 34.7518 13.5848 34.7518C14.0281 33.8497 13.3929 33.6381 13.3929 33.6381C16.1083 34.1563 15.1372 36.8017 15.1372 36.8017C16.3816 35.3532 15.4141 33.6015 14.4192 33.1386C13.5127 32.7166 13.2662 31.3909 12.596 31.1635C13.3987 30.7305 14.3164 31.1635 14.3164 31.1635C12.5335 30.2018 11.6138 31.3009 11.7491 31.6562C11.3292 31.7806 11.2199 31.4475 11.2897 31.2671C11.831 29.8657 13.8962 30.3505 13.8962 30.3505C16.7602 31.0328 16.8843 33.3074 16.5765 35.0647ZM14.3516 35.8542C14.0691 37.5356 12.3256 38.0731 10.5437 40.1954C11.1273 39.4895 12.4386 38.6824 13.3711 37.9563C14.5068 37.0723 14.3516 35.8542 14.3516 35.8542ZM15.3508 32.0358C16.4376 33.911 16.1283 35.5001 16.1283 35.5001C16.7706 33.3141 15.3508 32.0358 15.3508 32.0358Z" fill="black"/>
<path d="M64.6744 50.064C66.2977 49.1475 65.9827 48.1204 65.9827 48.1204C67.0615 48.4322 66.7103 49.1571 66.7103 49.1571C67.7876 48.2894 67.263 47.3464 67.263 47.3464C68.1041 47.7699 68.1866 48.2777 68.1496 48.7145C67.9827 50.7046 63.3866 51.3116 61.2803 51.3931C62.7381 50.7635 64.5312 50.1448 64.6744 50.064Z" fill="black"/>
<path d="M61.9973 53.3957L63.3059 53.6618C63.3059 53.6618 62.1157 55.5157 60.9548 54.4534C60.9548 54.4534 61.2915 55.3203 60.0996 55.568C60.0996 55.568 60.1008 56.2841 59.0351 55.9263C58.1824 55.6396 56.9888 55.6896 55.8154 55.8999C55.8156 55.9 58.4786 52.6541 61.9973 53.3957ZM61.2688 54.0104C61.2688 54.0104 61.478 54.0328 61.5962 53.9003C61.5962 53.9003 60.3937 53.4942 57.623 55.0016C57.6229 55.0016 59.4238 54.1004 61.2688 54.0104Z" fill="black"/>
<path d="M66.4177 52.8773C65.8245 52.8597 64.0736 51.8086 60.9482 52.2719C62.0548 51.8294 63.7926 51.6001 65.5334 52.1274C66.1113 52.3024 67.2217 52.4882 67.8944 52.2928C67.8944 52.2928 67.5066 53.9308 66.0058 53.8641L64.939 53.3145C64.3466 52.9591 63.361 52.7375 62.5766 52.7146C61.3269 52.677 59.9088 52.9021 59.458 53.0804C62.5239 51.6001 64.9007 52.9528 66.4177 52.8773Z" fill="black"/>
<path d="M70.1385 39.3961C69.6693 38.8126 69.7041 37.963 70.2206 37.423C70.5874 37.0383 70.9833 36.7863 70.9833 36.7863C71.3753 37.6068 71.2929 38.5977 71.2929 38.5977C71.8922 38.0411 72.3777 38.4187 72.3777 38.4187C71.712 38.7878 71.385 39.7428 72.0187 41.8889C72.432 43.2892 72.1428 44.0976 72.1428 44.0976C72.1579 42.9671 71.6066 41.7261 71.2144 40.9885C70.4255 39.3248 70.6685 38.1486 70.6685 38.1486C70.4295 38.6433 70.4807 39.3824 70.5866 39.9844C70.4344 39.7741 70.2834 39.5765 70.1385 39.3961Z" fill="black"/>
<path d="M68.9029 46.2982C67.2659 45.4183 66.2361 46.6486 66.2361 46.6486C65.7765 46.152 65.9734 45.4201 66.1976 45.3376C65.431 45.3278 65.0762 44.2125 65.0762 44.2125C65.4505 44.0382 65.7048 43.9932 66.0576 44.0256C65.183 43.715 64.931 43.0069 64.9102 42.3417V42.3413C64.8867 41.5846 65.0067 41.2168 65.1621 40.8825C65.4061 40.3547 65.7376 40.3413 65.8878 40.5091C65.9929 40.6263 65.8927 40.8725 65.6875 40.939C65.4634 41.0114 65.3989 41.1844 65.3441 41.3687C65.1473 42.0341 65.6765 42.8483 66.1861 43.0683C66.1861 43.0683 65.4524 42.3116 65.6965 41.4863C65.8015 41.7322 66.1105 41.9244 66.5754 41.9731C67.8537 42.1062 68.3156 42.8877 68.3156 42.8877C67.9435 42.3417 68.1488 41.5586 68.1488 41.5586C70.9748 42.1972 72.0945 43.4602 71.5329 47.4475C71.5151 46.0119 71.2367 44.7044 70.1329 43.2658C70.1329 43.2658 71.5345 45.6742 71.1784 48.224C71.07 48.3976 70.9486 48.563 70.8118 48.7224C71.3307 46.3893 70.1121 43.8565 68.5164 43.0931C68.5164 43.0931 70.0942 44.1839 70.4676 46.4807C70.9305 49.3248 69.5478 50.5845 66.7899 51.253L66.6575 51.0929C70.4802 50.1043 70.4108 47.1087 68.9029 46.2982Z" fill="black"/>
<path d="M66.3282 30.3505C66.3282 30.3505 68.3932 29.8657 68.9349 31.267C69.0044 31.4479 68.8951 31.7808 68.4757 31.6559C68.6108 31.3009 67.6911 30.2019 65.9079 31.1639C65.9079 31.1639 66.8257 30.7303 67.6279 31.1639C66.9578 31.3911 66.7116 32.7168 65.8055 33.1384C64.8103 33.6017 63.8429 35.3529 65.087 36.8018C65.087 36.8018 64.116 34.1564 66.8314 33.6382C66.8314 33.6382 66.1959 33.8497 66.6398 34.7522C66.6398 34.7522 67.5636 35.7845 67.3051 36.4543C67.3051 36.4543 67.6848 36.061 68.3414 36.0794C68.3414 36.0794 67.4206 36.9844 68.1486 37.8549C68.7822 38.6125 71.4787 40.9611 71.5825 44.2289C71.0314 41.1421 68.7814 40.0231 68.7814 40.0231L68.7808 40.0236C68.6 39.9069 68.4087 39.8034 68.2057 39.7154C67.8514 39.5628 67.5435 39.434 67.2709 39.3217C65.1901 38.4107 63.974 36.92 63.6482 35.0649C63.3403 33.3074 63.464 31.0327 66.3282 30.3505ZM66.8533 37.9561C67.786 38.6826 69.0971 39.4897 69.6809 40.1963C67.8986 38.0734 66.1552 37.5358 65.8728 35.8544C65.8728 35.8543 65.7178 37.072 66.8533 37.9561ZM64.0959 35.5001C64.0959 35.5001 63.7865 33.911 64.8736 32.0359C64.8736 32.0359 63.4541 33.3143 64.0959 35.5001Z" fill="black"/>
<path d="M35.8304 59.0142C35.3994 57.9149 35.6725 57.0694 35.3366 56.7116C34.2941 55.6023 31.3764 55.4363 26.5925 56.1641C22.592 56.7733 19.258 58.3983 15.4521 58.1874C15.6174 58.4159 15.7774 58.671 15.9391 58.9397C16.5274 58.9558 18.0493 58.9021 20.8745 58.2328C20.8745 58.2328 19.0355 59.0392 16.1239 59.2484C16.9204 60.5867 17.8456 62.1351 19.8231 62.4644C23.0579 63.02 27.2429 60.025 32.3444 60.535C36.002 60.9003 36.951 61.7251 36.951 61.7251C36.951 61.7251 36.3566 60.3569 35.8304 59.0142Z" fill="black"/>
<path d="M44.1511 59.0142C44.5823 57.9149 44.3092 57.0694 44.6447 56.7116C45.6873 55.6023 48.6055 55.4363 53.3892 56.1641C57.3893 56.7733 60.7233 58.3983 64.5292 58.1874C64.3641 58.4159 64.2043 58.671 64.0424 58.9397C63.4541 58.9558 61.9325 58.9021 59.1073 58.2328C59.1073 58.2328 60.946 59.0392 63.8577 59.2484C63.0612 60.5867 62.1355 62.1351 60.1584 62.4644C56.9235 63.02 52.7385 60.025 47.6368 60.535C43.9792 60.9003 43.0303 61.7251 43.0303 61.7251C43.0303 61.7251 43.6249 60.3569 44.1511 59.0142Z" fill="black"/>
<path d="M15.0333 64.4448C17.5288 65.5151 19.0044 63.6667 17.5803 62.8927C16.4212 62.9677 16.2092 64.0795 16.2092 64.0795C12.5534 63.855 12.8555 59.8873 12.8699 59.5059C12.8699 59.5059 12.0533 63.1668 15.0333 64.4448Z" fill="black"/>
<path d="M64.9481 64.4448C62.4525 65.5151 60.977 63.6667 62.4011 62.8927C63.5605 62.9677 63.7729 64.0795 63.7729 64.0795C67.4276 63.855 67.126 59.8873 67.1117 59.5059C67.1117 59.5059 67.9279 63.1668 64.9481 64.4448Z" fill="black"/>
<path d="M39.9911 63.9202C36.5637 63.9031 33.4318 63.4745 32.5654 62.4588C32.5727 62.5996 33.0192 66.7842 33.5011 67.3965C34.0732 68.1233 38.5437 68.3005 39.9911 68.3151C41.438 68.3003 45.9088 68.1233 46.4808 67.3965C46.9629 66.7842 47.4089 62.5996 47.4162 62.4588C46.5504 63.4745 43.4188 63.9029 39.9911 63.9202Z" fill="black"/>
<path d="M15.9317 65.3492C13.2499 65.1171 11.3384 61.7226 12.8539 58.7183C13.3987 60.6749 15.0336 59.7971 15.0336 59.7971C13.205 57.297 15.4931 56.0213 15.4931 56.0213C18.8811 55.1487 21.1161 55.8944 22.1744 56.438C22.519 56.347 22.8674 56.2547 23.219 56.1645C20.013 53.9083 12.5461 54.3187 11.278 59.2743C10.038 64.1217 13.7247 66.6341 16.6776 66.666C19.7242 66.6985 20.6741 63.5423 20.6741 63.5423C20.2593 63.9019 19.4122 63.6212 18.6876 63.9437C18.6077 64.4164 18.018 65.5297 15.9317 65.3492Z" fill="black"/>
<path d="M64.0497 65.3492C66.7316 65.1171 68.6432 61.7226 67.1278 58.7183C66.583 60.6749 64.9479 59.7971 64.9479 59.7971C66.777 57.297 64.4886 56.0213 64.4886 56.0213C61.1005 55.1487 58.8651 55.8944 57.8075 56.438C57.4622 56.347 57.1141 56.2547 56.7627 56.1645C59.9684 53.9083 67.4355 54.3187 68.7036 59.2743C69.9436 64.1217 66.2573 66.6341 63.3044 66.666C60.2576 66.6985 59.3076 63.5423 59.3076 63.5423C59.7221 63.9019 60.5694 63.6212 61.294 63.9437C61.3735 64.4164 61.9632 65.5297 64.0497 65.3492Z" fill="black"/>
<path d="M5.15416 67.1604C5.15416 67.1604 8.82559 68.1822 12.5821 66.3574C12.4392 66.2489 12.308 66.1332 12.187 66.0145C9.43479 67.4751 5.86035 66.8534 4.29273 65.093C4.29273 65.093 6.31257 66.7462 9.39654 66.3306C10.3703 66.1994 11.1645 65.9502 11.8042 65.587C11.5992 65.3276 11.4373 65.0678 11.3129 64.8374C10.3232 65.2091 9.25352 64.9995 8.54368 64.3355C6.59432 62.5107 7.86114 61.2704 7.86114 61.2704C7.04431 60.8595 6.36304 61.3973 6.34638 61.7267C6.03019 60.7166 4.75654 60.3658 4.75654 60.3658C4.6813 60.9289 4.77225 61.0904 4.9532 61.5442C3.24098 59.1985 -0.633462 61.1042 0.110347 61.849C0.254792 61.9645 0.521299 61.9586 0.648283 61.6626C0.996378 60.8494 2.6767 60.7056 3.36654 61.0775C3.36654 61.0775 1.96495 60.9376 1.38019 61.3589C1.68035 61.6032 1.92606 62.077 2.17035 62.7452C2.77924 64.4093 3.9513 64.9088 3.9513 64.9088C3.10574 64.6332 1.75558 65.3731 1.75558 65.3731C3.69051 68.8545 8.17178 69.3499 11.7527 67.3515C9.91035 67.8953 7.43035 68.0495 5.15416 67.1604Z" fill="black"/>
<path d="M74.8278 67.1604C74.8278 67.1604 71.1563 68.1822 67.4004 66.3574C67.5426 66.2489 67.6744 66.1332 67.7948 66.0145C70.5467 67.4751 74.1215 66.8534 75.6896 65.093C75.6896 65.093 73.6691 66.7462 70.5858 66.3306C69.6113 66.1994 68.8177 65.9502 68.1775 65.587C68.3828 65.3276 68.5447 65.0678 68.6693 64.8374C69.6585 65.2091 70.7285 64.9995 71.438 64.3355C73.3875 62.5107 72.1207 61.2704 72.1207 61.2704C72.9375 60.8595 73.6188 61.3973 73.6358 61.7267C73.9518 60.7166 75.2253 60.3658 75.2253 60.3658C75.3009 60.9289 75.2094 61.0904 75.0288 61.5442C76.7409 59.1985 80.6153 61.1042 79.8717 61.849C79.7272 61.9645 79.4607 61.9586 79.3337 61.6626C78.9856 60.8494 77.3056 60.7056 76.6152 61.0775C76.6152 61.0775 78.0174 60.9376 78.6024 61.3589C78.3015 61.6032 78.0559 62.077 77.812 62.7452C77.2031 64.4093 76.0312 64.9088 76.0312 64.9088C76.8766 64.6332 78.2264 65.3731 78.2264 65.3731C76.2917 68.8545 71.8102 69.3499 68.2296 67.3515C70.0715 67.8953 72.5517 68.0495 74.8278 67.1604Z" fill="black"/>
<path d="M32.1243 64.5859C30.4311 63.9084 28.8868 62.437 28.0653 61.539C27.7749 61.6011 27.4886 61.6686 27.2061 61.7402C28.9265 63.925 31.0232 64.8982 32.2362 65.3061C32.1957 65.064 32.1583 64.8217 32.1243 64.5859Z" fill="black"/>
<path d="M47.8572 64.5859C49.55 63.9084 51.0946 62.437 51.9161 61.539C52.2061 61.6011 52.4929 61.6686 52.7754 61.7402C51.0551 63.925 48.9581 64.8982 47.7451 65.3061C47.7859 65.064 47.8231 64.8217 47.8572 64.5859Z" fill="black"/>
<path d="M32.9837 61.7873C33.0539 61.6371 33.1364 61.4967 33.2012 61.3457C33.1561 61.3392 33.1112 61.3328 33.0648 61.327C32.7553 61.4956 32.6045 61.6947 32.6045 61.6947C32.7018 61.7864 32.8056 61.8711 32.9139 61.951C32.9361 61.8961 32.9586 61.8412 32.9837 61.7873Z" fill="black"/>
<path d="M46.9979 61.7873C46.9273 61.6371 46.8446 61.4967 46.7803 61.3457C46.8254 61.3392 46.8704 61.3328 46.9168 61.327C47.2265 61.4956 47.3768 61.6947 47.3768 61.6947C47.2798 61.7864 47.1758 61.8711 47.0674 61.951C47.0452 61.8961 47.0227 61.8412 46.9979 61.7873Z" fill="black"/>
<path d="M33.6174 62.0407C33.7133 61.8427 33.83 61.6608 33.9073 61.4569C33.7538 61.4296 33.5936 61.4035 33.4239 61.3778C33.3522 61.5582 33.256 61.7234 33.1738 61.9004C33.146 61.9598 33.1206 62.019 33.0947 62.0781C33.229 62.1659 33.3687 62.2461 33.5111 62.3197C33.5442 62.2246 33.575 62.1286 33.6174 62.0407Z" fill="black"/>
<path d="M46.3641 62.0407C46.2682 61.8427 46.1515 61.6608 46.0742 61.4569C46.2279 61.4296 46.3883 61.4035 46.5576 61.3778C46.6298 61.5582 46.7258 61.7234 46.808 61.9004C46.8357 61.9598 46.8612 62.019 46.8868 62.0781C46.7525 62.1659 46.613 62.2461 46.4707 62.3197C46.4376 62.2246 46.4066 62.1286 46.3641 62.0407Z" fill="black"/>
<path d="M34.2995 62.2461C34.4036 62.0281 34.5163 61.8211 34.6033 61.5966C34.4551 61.563 34.2995 61.5301 34.1305 61.498C34.0485 61.7292 33.9144 61.9309 33.8082 62.1536C33.7678 62.2391 33.736 62.3276 33.7041 62.4145C33.8524 62.4839 34.0022 62.5457 34.1509 62.6012C34.2062 62.486 34.2451 62.3613 34.2995 62.2461Z" fill="black"/>
<path d="M45.6824 62.2461C45.5789 62.0281 45.4661 61.8211 45.3789 61.5966C45.5267 61.563 45.6824 61.5301 45.8519 61.498C45.9338 61.7292 46.068 61.9309 46.1738 62.1536C46.2143 62.2391 46.2461 62.3276 46.2778 62.4145C46.1295 62.4839 45.9799 62.5457 45.8311 62.6012C45.7762 62.486 45.7375 62.3613 45.6824 62.2461Z" fill="black"/>
<path d="M34.8754 62.4831C34.9804 62.2367 35.0872 61.991 35.1934 61.7448C35.0777 61.7126 34.9532 61.6797 34.8192 61.647C34.7258 61.8932 34.6031 62.1214 34.4896 62.3589C34.4394 62.4631 34.4012 62.5711 34.3545 62.6739C34.4931 62.7215 34.6286 62.7629 34.7596 62.7992C34.7964 62.6934 34.8318 62.5866 34.8754 62.4831Z" fill="black"/>
<path d="M45.1055 62.4831C45.0011 62.2367 44.894 61.991 44.7881 61.7448C44.9038 61.7126 45.0282 61.6797 45.1622 61.647C45.2557 61.8932 45.3778 62.1214 45.4914 62.3589C45.5411 62.4631 45.58 62.5711 45.627 62.6739C45.4881 62.7215 45.3527 62.7629 45.2217 62.7992C45.1849 62.6934 45.1492 62.5866 45.1055 62.4831Z" fill="black"/>
<path d="M35.8699 61.9639C35.7386 61.9143 35.5846 61.8614 35.4054 61.8069C35.2877 62.0804 35.164 62.3521 35.0523 62.6291C35.0221 62.7035 34.9961 62.7799 34.9697 62.8557C35.107 62.8907 35.2354 62.9194 35.3534 62.9435C35.5221 62.6149 35.6875 62.2846 35.8699 61.9639Z" fill="black"/>
<path d="M44.1113 61.9639C44.2428 61.9143 44.3969 61.8614 44.5762 61.8069C44.6937 62.0804 44.8177 62.3521 44.9293 62.6291C44.9594 62.7035 44.9855 62.7799 45.012 62.8557C44.8747 62.8907 44.7464 62.9194 44.6283 62.9435C44.4597 62.6149 44.2942 62.2846 44.1113 61.9639Z" fill="black"/>
<path d="M36.0777 62.047C35.9013 62.3543 35.7418 62.6712 35.5801 62.9867C35.8542 63.0359 36.0266 63.0522 36.0266 63.0522L36.506 62.2646C36.4669 62.2383 36.3352 62.1564 36.0777 62.047Z" fill="black"/>
<path d="M43.9037 62.047C44.08 62.3543 44.24 62.6712 44.4016 62.9867C44.1272 63.0359 43.955 63.0522 43.955 63.0522L43.4756 62.2646C43.5148 62.2383 43.6464 62.1564 43.9037 62.047Z" fill="black"/>
<path d="M25.7021 63.5774L26.0824 63.805C26.0824 63.805 24.9583 63.9641 24.6399 65.0808C24.5507 65.6559 25.2351 65.5909 25.1397 65.1425C25.1283 65.0879 25.1042 65.0345 25.1243 64.9797C25.3318 64.4204 26.4805 64.1398 26.8788 64.3565C26.8788 64.3565 26.2561 64.487 25.8061 64.817C25.9718 64.8811 26.1102 64.9069 26.3296 65.0442C26.9819 65.354 27.3377 65.2806 28.0032 65.046C29.387 64.5572 30.5373 65.3061 30.8486 65.3871C30.8486 65.3871 27.2835 62.6629 25.7021 63.5774Z" fill="black"/>
<path d="M54.28 63.5774L53.8997 63.805C53.8997 63.805 55.0241 63.9641 55.3419 65.0808C55.4314 65.6559 54.747 65.5909 54.8425 65.1425C54.8539 65.0879 54.8779 65.0345 54.8579 64.9797C54.6503 64.4204 53.5017 64.1398 53.1033 64.3565C53.1033 64.3565 53.7262 64.487 54.1762 64.817C54.0108 64.8811 53.8722 64.9069 53.6527 65.0442C53.0001 65.354 52.6447 65.2806 51.979 65.046C50.5952 64.5572 49.4451 65.3061 49.1338 65.3871C49.1338 65.3871 52.6987 62.6629 54.28 63.5774Z" fill="black"/>
</g>
<defs>
<clipPath id="clip0_14_416">
<rect width="80" height="76" fill="white"/>
</clipPath>
</defs>
</svg>
